ISO-10303-21;
HEADER;
/* Generated by software containing ST-Developer
 * from STEP Tools, Inc. (www.steptools.com) 
 */

FILE_DESCRIPTION(
/* description */ (''),
/* implementation_level */ '2;1');

FILE_NAME(
/* name */ 'Lid_One_Side.step',
/* time_stamp */ '2026-05-17T15:40:40+02:00',
/* author */ (''),
/* organization */ (''),
/* preprocessor_version */ 'ST-DEVELOPER v20.1',
/* originating_system */ 'Autodesk Translation Framework v15.8.0.0',
/* authorisation */ '');

FILE_SCHEMA (('AUTOMOTIVE_DESIGN { 1 0 10303 214 3 1 1 }'));
ENDSEC;

DATA;
#10=MECHANICAL_DESIGN_GEOMETRIC_PRESENTATION_REPRESENTATION('',(#17),#1631);
#11=ITEM_DEFINED_TRANSFORMATION($,$,#998,#1074);
#12=(
REPRESENTATION_RELATIONSHIP($,$,#1642,#1641)
REPRESENTATION_RELATIONSHIP_WITH_TRANSFORMATION(#11)
SHAPE_REPRESENTATION_RELATIONSHIP()
);
#13=CONTEXT_DEPENDENT_SHAPE_REPRESENTATION(#12,#1640);
#14=NEXT_ASSEMBLY_USAGE_OCCURRENCE('Lid_One_Side:1','Lid_One_Side:1',
'Lid_One_Side:1',#1644,#1645,'Lid_One_Side:1');
#15=SHAPE_REPRESENTATION_RELATIONSHIP('SRR','None',#1642,#16);
#16=ADVANCED_BREP_SHAPE_REPRESENTATION('',(#18),#1630);
#17=STYLED_ITEM('',(#1655),#18);
#18=MANIFOLD_SOLID_BREP('Body1',#984);
#19=CYLINDRICAL_SURFACE('',#1006,1.50000000000001);
#20=CYLINDRICAL_SURFACE('',#1010,1.5);
#21=CYLINDRICAL_SURFACE('',#1014,1.55);
#22=CYLINDRICAL_SURFACE('',#1020,1.50000000000001);
#23=CYLINDRICAL_SURFACE('',#1024,1.5);
#24=CYLINDRICAL_SURFACE('',#1028,1.55);
#25=CYLINDRICAL_SURFACE('',#1036,1.50000000000001);
#26=CYLINDRICAL_SURFACE('',#1040,1.5);
#27=CYLINDRICAL_SURFACE('',#1044,1.55);
#28=CYLINDRICAL_SURFACE('',#1052,2.25);
#29=CYLINDRICAL_SURFACE('',#1054,1.15);
#30=FACE_BOUND('',#86,.T.);
#31=FACE_BOUND('',#110,.T.);
#32=FACE_BOUND('',#118,.T.);
#33=FACE_BOUND('',#123,.T.);
#34=FACE_BOUND('',#125,.T.);
#35=FACE_BOUND('',#135,.T.);
#36=FACE_OUTER_BOUND('',#83,.T.);
#37=FACE_OUTER_BOUND('',#84,.T.);
#38=FACE_OUTER_BOUND('',#85,.T.);
#39=FACE_OUTER_BOUND('',#87,.T.);
#40=FACE_OUTER_BOUND('',#88,.T.);
#41=FACE_OUTER_BOUND('',#89,.T.);
#42=FACE_OUTER_BOUND('',#90,.T.);
#43=FACE_OUTER_BOUND('',#91,.T.);
#44=FACE_OUTER_BOUND('',#92,.T.);
#45=FACE_OUTER_BOUND('',#93,.T.);
#46=FACE_OUTER_BOUND('',#94,.T.);
#47=FACE_OUTER_BOUND('',#95,.T.);
#48=FACE_OUTER_BOUND('',#96,.T.);
#49=FACE_OUTER_BOUND('',#97,.T.);
#50=FACE_OUTER_BOUND('',#98,.T.);
#51=FACE_OUTER_BOUND('',#99,.T.);
#52=FACE_OUTER_BOUND('',#100,.T.);
#53=FACE_OUTER_BOUND('',#101,.T.);
#54=FACE_OUTER_BOUND('',#102,.T.);
#55=FACE_OUTER_BOUND('',#103,.T.);
#56=FACE_OUTER_BOUND('',#104,.T.);
#57=FACE_OUTER_BOUND('',#105,.T.);
#58=FACE_OUTER_BOUND('',#106,.T.);
#59=FACE_OUTER_BOUND('',#107,.T.);
#60=FACE_OUTER_BOUND('',#108,.T.);
#61=FACE_OUTER_BOUND('',#109,.T.);
#62=FACE_OUTER_BOUND('',#111,.T.);
#63=FACE_OUTER_BOUND('',#112,.T.);
#64=FACE_OUTER_BOUND('',#113,.T.);
#65=FACE_OUTER_BOUND('',#114,.T.);
#66=FACE_OUTER_BOUND('',#115,.T.);
#67=FACE_OUTER_BOUND('',#116,.T.);
#68=FACE_OUTER_BOUND('',#117,.T.);
#69=FACE_OUTER_BOUND('',#119,.T.);
#70=FACE_OUTER_BOUND('',#120,.T.);
#71=FACE_OUTER_BOUND('',#121,.T.);
#72=FACE_OUTER_BOUND('',#122,.T.);
#73=FACE_OUTER_BOUND('',#124,.T.);
#74=FACE_OUTER_BOUND('',#126,.T.);
#75=FACE_OUTER_BOUND('',#127,.T.);
#76=FACE_OUTER_BOUND('',#128,.T.);
#77=FACE_OUTER_BOUND('',#129,.T.);
#78=FACE_OUTER_BOUND('',#130,.T.);
#79=FACE_OUTER_BOUND('',#131,.T.);
#80=FACE_OUTER_BOUND('',#132,.T.);
#81=FACE_OUTER_BOUND('',#133,.T.);
#82=FACE_OUTER_BOUND('',#134,.T.);
#83=EDGE_LOOP('',(#621,#622));
#84=EDGE_LOOP('',(#623,#624));
#85=EDGE_LOOP('',(#625,#626,#627,#628,#629,#630,#631,#632,#633,#634,#635,
#636,#637,#638,#639,#640,#641,#642,#643,#644,#645,#646,#647,#648,#649,#650,
#651,#652,#653,#654,#655,#656,#657,#658,#659,#660,#661,#662,#663,#664));
#86=EDGE_LOOP('',(#665));
#87=EDGE_LOOP('',(#666,#667,#668,#669));
#88=EDGE_LOOP('',(#670,#671,#672,#673));
#89=EDGE_LOOP('',(#674,#675,#676,#677));
#90=EDGE_LOOP('',(#678,#679,#680,#681));
#91=EDGE_LOOP('',(#682,#683,#684,#685));
#92=EDGE_LOOP('',(#686,#687,#688,#689,#690,#691,#692,#693));
#93=EDGE_LOOP('',(#694,#695,#696,#697,#698,#699,#700,#701,#702));
#94=EDGE_LOOP('',(#703,#704,#705,#706));
#95=EDGE_LOOP('',(#707,#708,#709,#710));
#96=EDGE_LOOP('',(#711,#712,#713,#714));
#97=EDGE_LOOP('',(#715,#716,#717,#718));
#98=EDGE_LOOP('',(#719,#720,#721,#722));
#99=EDGE_LOOP('',(#723,#724,#725,#726,#727,#728,#729,#730));
#100=EDGE_LOOP('',(#731,#732,#733,#734,#735,#736,#737,#738,#739));
#101=EDGE_LOOP('',(#740,#741));
#102=EDGE_LOOP('',(#742,#743,#744,#745));
#103=EDGE_LOOP('',(#746,#747,#748,#749));
#104=EDGE_LOOP('',(#750,#751,#752,#753));
#105=EDGE_LOOP('',(#754,#755,#756,#757));
#106=EDGE_LOOP('',(#758,#759,#760,#761));
#107=EDGE_LOOP('',(#762,#763,#764,#765,#766,#767,#768,#769));
#108=EDGE_LOOP('',(#770,#771,#772,#773,#774,#775,#776,#777,#778));
#109=EDGE_LOOP('',(#779));
#110=EDGE_LOOP('',(#780));
#111=EDGE_LOOP('',(#781,#782,#783,#784));
#112=EDGE_LOOP('',(#785,#786,#787,#788));
#113=EDGE_LOOP('',(#789,#790,#791,#792));
#114=EDGE_LOOP('',(#793,#794,#795,#796));
#115=EDGE_LOOP('',(#797,#798,#799,#800));
#116=EDGE_LOOP('',(#801,#802,#803,#804));
#117=EDGE_LOOP('',(#805,#806,#807,#808,#809,#810,#811,#812,#813,#814));
#118=EDGE_LOOP('',(#815));
#119=EDGE_LOOP('',(#816,#817,#818,#819));
#120=EDGE_LOOP('',(#820,#821,#822,#823));
#121=EDGE_LOOP('',(#824,#825,#826,#827));
#122=EDGE_LOOP('',(#828,#829,#830,#831,#832,#833,#834,#835,#836,#837));
#123=EDGE_LOOP('',(#838));
#124=EDGE_LOOP('',(#839,#840,#841,#842,#843,#844,#845,#846,#847));
#125=EDGE_LOOP('',(#848));
#126=EDGE_LOOP('',(#849,#850,#851,#852,#853));
#127=EDGE_LOOP('',(#854,#855,#856,#857));
#128=EDGE_LOOP('',(#858,#859,#860,#861));
#129=EDGE_LOOP('',(#862,#863,#864,#865));
#130=EDGE_LOOP('',(#866,#867,#868,#869));
#131=EDGE_LOOP('',(#870,#871,#872,#873));
#132=EDGE_LOOP('',(#874,#875,#876,#877));
#133=EDGE_LOOP('',(#878,#879,#880,#881));
#134=EDGE_LOOP('',(#882,#883,#884,#885,#886,#887,#888,#889,#890,#891,#892,
#893,#894,#895,#896,#897,#898,#899));
#135=EDGE_LOOP('',(#900));
#136=LINE('',#1349,#248);
#137=LINE('',#1354,#249);
#138=LINE('',#1357,#250);
#139=LINE('',#1359,#251);
#140=LINE('',#1361,#252);
#141=LINE('',#1363,#253);
#142=LINE('',#1365,#254);
#143=LINE('',#1367,#255);
#144=LINE('',#1369,#256);
#145=LINE('',#1371,#257);
#146=LINE('',#1373,#258);
#147=LINE('',#1375,#259);
#148=LINE('',#1377,#260);
#149=LINE('',#1378,#261);
#150=LINE('',#1380,#262);
#151=LINE('',#1382,#263);
#152=LINE('',#1384,#264);
#153=LINE('',#1386,#265);
#154=LINE('',#1388,#266);
#155=LINE('',#1390,#267);
#156=LINE('',#1392,#268);
#157=LINE('',#1394,#269);
#158=LINE('',#1396,#270);
#159=LINE('',#1398,#271);
#160=LINE('',#1400,#272);
#161=LINE('',#1402,#273);
#162=LINE('',#1404,#274);
#163=LINE('',#1406,#275);
#164=LINE('',#1408,#276);
#165=LINE('',#1410,#277);
#166=LINE('',#1412,#278);
#167=LINE('',#1414,#279);
#168=LINE('',#1416,#280);
#169=LINE('',#1418,#281);
#170=LINE('',#1420,#282);
#171=LINE('',#1422,#283);
#172=LINE('',#1424,#284);
#173=LINE('',#1426,#285);
#174=LINE('',#1428,#286);
#175=LINE('',#1429,#287);
#176=LINE('',#1434,#288);
#177=LINE('',#1436,#289);
#178=LINE('',#1437,#290);
#179=LINE('',#1443,#291);
#180=LINE('',#1446,#292);
#181=LINE('',#1448,#293);
#182=LINE('',#1449,#294);
#183=LINE('',#1455,#295);
#184=LINE('',#1457,#296);
#185=LINE('',#1458,#297);
#186=LINE('',#1464,#298);
#187=LINE('',#1469,#299);
#188=LINE('',#1471,#300);
#189=LINE('',#1472,#301);
#190=LINE('',#1478,#302);
#191=LINE('',#1481,#303);
#192=LINE('',#1483,#304);
#193=LINE('',#1484,#305);
#194=LINE('',#1490,#306);
#195=LINE('',#1492,#307);
#196=LINE('',#1493,#308);
#197=LINE('',#1499,#309);
#198=LINE('',#1506,#310);
#199=LINE('',#1508,#311);
#200=LINE('',#1509,#312);
#201=LINE('',#1515,#313);
#202=LINE('',#1518,#314);
#203=LINE('',#1520,#315);
#204=LINE('',#1521,#316);
#205=LINE('',#1527,#317);
#206=LINE('',#1530,#318);
#207=LINE('',#1531,#319);
#208=LINE('',#1532,#320);
#209=LINE('',#1538,#321);
#210=LINE('',#1549,#322);
#211=LINE('',#1551,#323);
#212=LINE('',#1555,#324);
#213=LINE('',#1556,#325);
#214=LINE('',#1557,#326);
#215=LINE('',#1560,#327);
#216=LINE('',#1561,#328);
#217=LINE('',#1564,#329);
#218=LINE('',#1565,#330);
#219=LINE('',#1568,#331);
#220=LINE('',#1569,#332);
#221=LINE('',#1572,#333);
#222=LINE('',#1573,#334);
#223=LINE('',#1576,#335);
#224=LINE('',#1577,#336);
#225=LINE('',#1580,#337);
#226=LINE('',#1581,#338);
#227=LINE('',#1584,#339);
#228=LINE('',#1585,#340);
#229=LINE('',#1588,#341);
#230=LINE('',#1589,#342);
#231=LINE('',#1592,#343);
#232=LINE('',#1593,#344);
#233=LINE('',#1596,#345);
#234=LINE('',#1597,#346);
#235=LINE('',#1600,#347);
#236=LINE('',#1601,#348);
#237=LINE('',#1604,#349);
#238=LINE('',#1605,#350);
#239=LINE('',#1608,#351);
#240=LINE('',#1609,#352);
#241=LINE('',#1612,#353);
#242=LINE('',#1613,#354);
#243=LINE('',#1616,#355);
#244=LINE('',#1617,#356);
#245=LINE('',#1620,#357);
#246=LINE('',#1621,#358);
#247=LINE('',#1623,#359);
#248=VECTOR('',#1083,10.);
#249=VECTOR('',#1088,10.);
#250=VECTOR('',#1091,10.);
#251=VECTOR('',#1092,10.);
#252=VECTOR('',#1093,10.);
#253=VECTOR('',#1094,10.);
#254=VECTOR('',#1095,10.);
#255=VECTOR('',#1096,10.);
#256=VECTOR('',#1097,10.);
#257=VECTOR('',#1098,10.);
#258=VECTOR('',#1099,10.);
#259=VECTOR('',#1100,10.);
#260=VECTOR('',#1101,10.);
#261=VECTOR('',#1102,10.);
#262=VECTOR('',#1103,10.);
#263=VECTOR('',#1104,10.);
#264=VECTOR('',#1105,10.);
#265=VECTOR('',#1106,10.);
#266=VECTOR('',#1107,10.);
#267=VECTOR('',#1108,10.);
#268=VECTOR('',#1109,10.);
#269=VECTOR('',#1110,10.);
#270=VECTOR('',#1111,10.);
#271=VECTOR('',#1112,10.);
#272=VECTOR('',#1113,10.);
#273=VECTOR('',#1114,10.);
#274=VECTOR('',#1115,10.);
#275=VECTOR('',#1116,10.);
#276=VECTOR('',#1117,10.);
#277=VECTOR('',#1118,10.);
#278=VECTOR('',#1119,10.);
#279=VECTOR('',#1120,10.);
#280=VECTOR('',#1121,10.);
#281=VECTOR('',#1122,10.);
#282=VECTOR('',#1123,10.);
#283=VECTOR('',#1124,10.);
#284=VECTOR('',#1125,10.);
#285=VECTOR('',#1126,10.);
#286=VECTOR('',#1127,10.);
#287=VECTOR('',#1128,10.);
#288=VECTOR('',#1133,10.);
#289=VECTOR('',#1134,10.);
#290=VECTOR('',#1135,10.);
#291=VECTOR('',#1142,10.);
#292=VECTOR('',#1145,10.);
#293=VECTOR('',#1146,10.);
#294=VECTOR('',#1147,10.);
#295=VECTOR('',#1154,10.);
#296=VECTOR('',#1157,10.);
#297=VECTOR('',#1158,10.);
#298=VECTOR('',#1165,1.55);
#299=VECTOR('',#1172,10.);
#300=VECTOR('',#1173,10.);
#301=VECTOR('',#1174,10.);
#302=VECTOR('',#1181,10.);
#303=VECTOR('',#1184,10.);
#304=VECTOR('',#1185,10.);
#305=VECTOR('',#1186,10.);
#306=VECTOR('',#1193,10.);
#307=VECTOR('',#1196,10.);
#308=VECTOR('',#1197,10.);
#309=VECTOR('',#1204,1.55);
#310=VECTOR('',#1215,10.);
#311=VECTOR('',#1216,10.);
#312=VECTOR('',#1217,10.);
#313=VECTOR('',#1224,10.);
#314=VECTOR('',#1227,10.);
#315=VECTOR('',#1228,10.);
#316=VECTOR('',#1229,10.);
#317=VECTOR('',#1236,10.);
#318=VECTOR('',#1239,10.);
#319=VECTOR('',#1240,10.);
#320=VECTOR('',#1241,10.);
#321=VECTOR('',#1248,1.55);
#322=VECTOR('',#1263,2.25);
#323=VECTOR('',#1266,1.15);
#324=VECTOR('',#1269,10.);
#325=VECTOR('',#1270,10.);
#326=VECTOR('',#1271,10.);
#327=VECTOR('',#1274,10.);
#328=VECTOR('',#1275,10.);
#329=VECTOR('',#1278,10.);
#330=VECTOR('',#1279,10.);
#331=VECTOR('',#1282,10.);
#332=VECTOR('',#1283,10.);
#333=VECTOR('',#1286,10.);
#334=VECTOR('',#1287,10.);
#335=VECTOR('',#1290,10.);
#336=VECTOR('',#1291,10.);
#337=VECTOR('',#1294,10.);
#338=VECTOR('',#1295,10.);
#339=VECTOR('',#1298,10.);
#340=VECTOR('',#1299,10.);
#341=VECTOR('',#1302,10.);
#342=VECTOR('',#1303,10.);
#343=VECTOR('',#1306,10.);
#344=VECTOR('',#1307,10.);
#345=VECTOR('',#1310,10.);
#346=VECTOR('',#1311,10.);
#347=VECTOR('',#1314,10.);
#348=VECTOR('',#1315,10.);
#349=VECTOR('',#1318,10.);
#350=VECTOR('',#1319,10.);
#351=VECTOR('',#1322,10.);
#352=VECTOR('',#1323,10.);
#353=VECTOR('',#1326,10.);
#354=VECTOR('',#1327,10.);
#355=VECTOR('',#1330,10.);
#356=VECTOR('',#1331,10.);
#357=VECTOR('',#1334,10.);
#358=VECTOR('',#1335,10.);
#359=VECTOR('',#1338,10.);
#360=CIRCLE('',#1000,1.55);
#361=CIRCLE('',#1002,1.55);
#362=CIRCLE('',#1004,1.15);
#363=CIRCLE('',#1007,1.50000000000001);
#364=CIRCLE('',#1008,1.50000000000001);
#365=CIRCLE('',#1011,1.5);
#366=CIRCLE('',#1012,1.5);
#367=CIRCLE('',#1015,1.55);
#368=CIRCLE('',#1016,1.55);
#369=CIRCLE('',#1017,1.55);
#370=CIRCLE('',#1021,1.50000000000001);
#371=CIRCLE('',#1022,1.50000000000001);
#372=CIRCLE('',#1025,1.5);
#373=CIRCLE('',#1026,1.5);
#374=CIRCLE('',#1029,1.55);
#375=CIRCLE('',#1030,1.55);
#376=CIRCLE('',#1031,1.55);
#377=CIRCLE('',#1034,1.55);
#378=CIRCLE('',#1037,1.50000000000001);
#379=CIRCLE('',#1038,1.50000000000001);
#380=CIRCLE('',#1041,1.5);
#381=CIRCLE('',#1042,1.5);
#382=CIRCLE('',#1045,1.55);
#383=CIRCLE('',#1046,1.55);
#384=CIRCLE('',#1047,1.55);
#385=CIRCLE('',#1050,2.25);
#386=CIRCLE('',#1051,1.15);
#387=CIRCLE('',#1053,2.25);
#388=VERTEX_POINT('',#1346);
#389=VERTEX_POINT('',#1347);
#390=VERTEX_POINT('',#1351);
#391=VERTEX_POINT('',#1352);
#392=VERTEX_POINT('',#1356);
#393=VERTEX_POINT('',#1358);
#394=VERTEX_POINT('',#1360);
#395=VERTEX_POINT('',#1362);
#396=VERTEX_POINT('',#1364);
#397=VERTEX_POINT('',#1366);
#398=VERTEX_POINT('',#1368);
#399=VERTEX_POINT('',#1370);
#400=VERTEX_POINT('',#1372);
#401=VERTEX_POINT('',#1374);
#402=VERTEX_POINT('',#1376);
#403=VERTEX_POINT('',#1379);
#404=VERTEX_POINT('',#1381);
#405=VERTEX_POINT('',#1383);
#406=VERTEX_POINT('',#1385);
#407=VERTEX_POINT('',#1387);
#408=VERTEX_POINT('',#1389);
#409=VERTEX_POINT('',#1391);
#410=VERTEX_POINT('',#1393);
#411=VERTEX_POINT('',#1395);
#412=VERTEX_POINT('',#1397);
#413=VERTEX_POINT('',#1399);
#414=VERTEX_POINT('',#1401);
#415=VERTEX_POINT('',#1403);
#416=VERTEX_POINT('',#1405);
#417=VERTEX_POINT('',#1407);
#418=VERTEX_POINT('',#1409);
#419=VERTEX_POINT('',#1411);
#420=VERTEX_POINT('',#1413);
#421=VERTEX_POINT('',#1415);
#422=VERTEX_POINT('',#1417);
#423=VERTEX_POINT('',#1419);
#424=VERTEX_POINT('',#1421);
#425=VERTEX_POINT('',#1423);
#426=VERTEX_POINT('',#1425);
#427=VERTEX_POINT('',#1427);
#428=VERTEX_POINT('',#1430);
#429=VERTEX_POINT('',#1433);
#430=VERTEX_POINT('',#1435);
#431=VERTEX_POINT('',#1439);
#432=VERTEX_POINT('',#1441);
#433=VERTEX_POINT('',#1445);
#434=VERTEX_POINT('',#1447);
#435=VERTEX_POINT('',#1451);
#436=VERTEX_POINT('',#1453);
#437=VERTEX_POINT('',#1460);
#438=VERTEX_POINT('',#1463);
#439=VERTEX_POINT('',#1468);
#440=VERTEX_POINT('',#1470);
#441=VERTEX_POINT('',#1474);
#442=VERTEX_POINT('',#1476);
#443=VERTEX_POINT('',#1480);
#444=VERTEX_POINT('',#1482);
#445=VERTEX_POINT('',#1486);
#446=VERTEX_POINT('',#1488);
#447=VERTEX_POINT('',#1495);
#448=VERTEX_POINT('',#1498);
#449=VERTEX_POINT('',#1505);
#450=VERTEX_POINT('',#1507);
#451=VERTEX_POINT('',#1511);
#452=VERTEX_POINT('',#1513);
#453=VERTEX_POINT('',#1517);
#454=VERTEX_POINT('',#1519);
#455=VERTEX_POINT('',#1523);
#456=VERTEX_POINT('',#1525);
#457=VERTEX_POINT('',#1529);
#458=VERTEX_POINT('',#1534);
#459=VERTEX_POINT('',#1537);
#460=VERTEX_POINT('',#1542);
#461=VERTEX_POINT('',#1544);
#462=VERTEX_POINT('',#1547);
#463=VERTEX_POINT('',#1553);
#464=VERTEX_POINT('',#1554);
#465=VERTEX_POINT('',#1559);
#466=VERTEX_POINT('',#1563);
#467=VERTEX_POINT('',#1567);
#468=VERTEX_POINT('',#1571);
#469=VERTEX_POINT('',#1575);
#470=VERTEX_POINT('',#1579);
#471=VERTEX_POINT('',#1583);
#472=VERTEX_POINT('',#1587);
#473=VERTEX_POINT('',#1591);
#474=VERTEX_POINT('',#1595);
#475=VERTEX_POINT('',#1599);
#476=VERTEX_POINT('',#1603);
#477=VERTEX_POINT('',#1607);
#478=VERTEX_POINT('',#1611);
#479=VERTEX_POINT('',#1615);
#480=VERTEX_POINT('',#1619);
#481=EDGE_CURVE('',#388,#389,#360,.T.);
#482=EDGE_CURVE('',#389,#388,#136,.T.);
#483=EDGE_CURVE('',#390,#391,#361,.T.);
#484=EDGE_CURVE('',#391,#390,#137,.T.);
#485=EDGE_CURVE('',#392,#389,#138,.T.);
#486=EDGE_CURVE('',#388,#393,#139,.T.);
#487=EDGE_CURVE('',#393,#394,#140,.T.);
#488=EDGE_CURVE('',#394,#395,#141,.T.);
#489=EDGE_CURVE('',#395,#396,#142,.T.);
#490=EDGE_CURVE('',#396,#397,#143,.T.);
#491=EDGE_CURVE('',#397,#398,#144,.T.);
#492=EDGE_CURVE('',#398,#399,#145,.T.);
#493=EDGE_CURVE('',#399,#400,#146,.T.);
#494=EDGE_CURVE('',#400,#401,#147,.T.);
#495=EDGE_CURVE('',#401,#402,#148,.T.);
#496=EDGE_CURVE('',#402,#391,#149,.T.);
#497=EDGE_CURVE('',#390,#403,#150,.T.);
#498=EDGE_CURVE('',#403,#404,#151,.T.);
#499=EDGE_CURVE('',#404,#405,#152,.T.);
#500=EDGE_CURVE('',#405,#406,#153,.T.);
#501=EDGE_CURVE('',#406,#407,#154,.T.);
#502=EDGE_CURVE('',#407,#408,#155,.T.);
#503=EDGE_CURVE('',#408,#409,#156,.T.);
#504=EDGE_CURVE('',#409,#410,#157,.T.);
#505=EDGE_CURVE('',#410,#411,#158,.T.);
#506=EDGE_CURVE('',#411,#412,#159,.T.);
#507=EDGE_CURVE('',#412,#413,#160,.T.);
#508=EDGE_CURVE('',#413,#414,#161,.T.);
#509=EDGE_CURVE('',#414,#415,#162,.T.);
#510=EDGE_CURVE('',#415,#416,#163,.T.);
#511=EDGE_CURVE('',#416,#417,#164,.T.);
#512=EDGE_CURVE('',#417,#418,#165,.T.);
#513=EDGE_CURVE('',#418,#419,#166,.T.);
#514=EDGE_CURVE('',#419,#420,#167,.T.);
#515=EDGE_CURVE('',#420,#421,#168,.T.);
#516=EDGE_CURVE('',#421,#422,#169,.T.);
#517=EDGE_CURVE('',#422,#423,#170,.T.);
#518=EDGE_CURVE('',#423,#424,#171,.T.);
#519=EDGE_CURVE('',#424,#425,#172,.T.);
#520=EDGE_CURVE('',#425,#426,#173,.T.);
#521=EDGE_CURVE('',#426,#427,#174,.T.);
#522=EDGE_CURVE('',#427,#392,#175,.T.);
#523=EDGE_CURVE('',#428,#428,#362,.T.);
#524=EDGE_CURVE('',#395,#429,#176,.T.);
#525=EDGE_CURVE('',#430,#394,#177,.T.);
#526=EDGE_CURVE('',#429,#430,#178,.T.);
#527=EDGE_CURVE('',#429,#431,#363,.T.);
#528=EDGE_CURVE('',#432,#430,#364,.T.);
#529=EDGE_CURVE('',#431,#432,#179,.T.);
#530=EDGE_CURVE('',#431,#433,#180,.T.);
#531=EDGE_CURVE('',#434,#432,#181,.T.);
#532=EDGE_CURVE('',#433,#434,#182,.T.);
#533=EDGE_CURVE('',#433,#435,#365,.T.);
#534=EDGE_CURVE('',#436,#434,#366,.T.);
#535=EDGE_CURVE('',#435,#436,#183,.T.);
#536=EDGE_CURVE('',#435,#426,#184,.T.);
#537=EDGE_CURVE('',#427,#436,#185,.T.);
#538=EDGE_CURVE('',#393,#437,#367,.T.);
#539=EDGE_CURVE('',#437,#392,#368,.T.);
#540=EDGE_CURVE('',#437,#438,#186,.T.);
#541=EDGE_CURVE('',#438,#438,#369,.T.);
#542=EDGE_CURVE('',#405,#439,#187,.T.);
#543=EDGE_CURVE('',#440,#404,#188,.T.);
#544=EDGE_CURVE('',#439,#440,#189,.T.);
#545=EDGE_CURVE('',#439,#441,#370,.T.);
#546=EDGE_CURVE('',#442,#440,#371,.T.);
#547=EDGE_CURVE('',#441,#442,#190,.T.);
#548=EDGE_CURVE('',#441,#443,#191,.T.);
#549=EDGE_CURVE('',#444,#442,#192,.T.);
#550=EDGE_CURVE('',#443,#444,#193,.T.);
#551=EDGE_CURVE('',#443,#445,#372,.T.);
#552=EDGE_CURVE('',#446,#444,#373,.T.);
#553=EDGE_CURVE('',#445,#446,#194,.T.);
#554=EDGE_CURVE('',#445,#400,#195,.T.);
#555=EDGE_CURVE('',#401,#446,#196,.T.);
#556=EDGE_CURVE('',#403,#447,#374,.T.);
#557=EDGE_CURVE('',#447,#402,#375,.T.);
#558=EDGE_CURVE('',#447,#448,#197,.T.);
#559=EDGE_CURVE('',#448,#448,#376,.T.);
#560=EDGE_CURVE('',#421,#420,#377,.T.);
#561=EDGE_CURVE('',#424,#449,#198,.T.);
#562=EDGE_CURVE('',#450,#423,#199,.T.);
#563=EDGE_CURVE('',#449,#450,#200,.T.);
#564=EDGE_CURVE('',#449,#451,#378,.T.);
#565=EDGE_CURVE('',#452,#450,#379,.T.);
#566=EDGE_CURVE('',#451,#452,#201,.T.);
#567=EDGE_CURVE('',#451,#453,#202,.T.);
#568=EDGE_CURVE('',#454,#452,#203,.T.);
#569=EDGE_CURVE('',#453,#454,#204,.T.);
#570=EDGE_CURVE('',#453,#455,#380,.T.);
#571=EDGE_CURVE('',#456,#454,#381,.T.);
#572=EDGE_CURVE('',#455,#456,#205,.T.);
#573=EDGE_CURVE('',#455,#457,#206,.T.);
#574=EDGE_CURVE('',#418,#456,#207,.T.);
#575=EDGE_CURVE('',#418,#457,#208,.T.);
#576=EDGE_CURVE('',#422,#458,#382,.T.);
#577=EDGE_CURVE('',#458,#419,#383,.T.);
#578=EDGE_CURVE('',#458,#459,#209,.T.);
#579=EDGE_CURVE('',#459,#459,#384,.T.);
#580=EDGE_CURVE('',#460,#460,#385,.T.);
#581=EDGE_CURVE('',#461,#461,#386,.T.);
#582=EDGE_CURVE('',#462,#462,#387,.T.);
#583=EDGE_CURVE('',#462,#460,#210,.T.);
#584=EDGE_CURVE('',#461,#428,#211,.T.);
#585=EDGE_CURVE('',#463,#464,#212,.T.);
#586=EDGE_CURVE('',#463,#410,#213,.T.);
#587=EDGE_CURVE('',#464,#409,#214,.T.);
#588=EDGE_CURVE('',#465,#464,#215,.T.);
#589=EDGE_CURVE('',#465,#408,#216,.T.);
#590=EDGE_CURVE('',#466,#465,#217,.T.);
#591=EDGE_CURVE('',#466,#407,#218,.T.);
#592=EDGE_CURVE('',#467,#466,#219,.T.);
#593=EDGE_CURVE('',#467,#406,#220,.T.);
#594=EDGE_CURVE('',#468,#399,#221,.T.);
#595=EDGE_CURVE('',#468,#467,#222,.T.);
#596=EDGE_CURVE('',#469,#468,#223,.T.);
#597=EDGE_CURVE('',#469,#398,#224,.T.);
#598=EDGE_CURVE('',#470,#469,#225,.T.);
#599=EDGE_CURVE('',#470,#397,#226,.T.);
#600=EDGE_CURVE('',#471,#470,#227,.T.);
#601=EDGE_CURVE('',#471,#396,#228,.T.);
#602=EDGE_CURVE('',#472,#425,#229,.T.);
#603=EDGE_CURVE('',#472,#471,#230,.T.);
#604=EDGE_CURVE('',#473,#457,#231,.T.);
#605=EDGE_CURVE('',#473,#472,#232,.T.);
#606=EDGE_CURVE('',#474,#473,#233,.T.);
#607=EDGE_CURVE('',#474,#417,#234,.T.);
#608=EDGE_CURVE('',#475,#474,#235,.T.);
#609=EDGE_CURVE('',#475,#416,#236,.T.);
#610=EDGE_CURVE('',#475,#476,#237,.T.);
#611=EDGE_CURVE('',#476,#415,#238,.T.);
#612=EDGE_CURVE('',#476,#477,#239,.T.);
#613=EDGE_CURVE('',#477,#414,#240,.T.);
#614=EDGE_CURVE('',#477,#478,#241,.T.);
#615=EDGE_CURVE('',#478,#413,#242,.T.);
#616=EDGE_CURVE('',#478,#479,#243,.T.);
#617=EDGE_CURVE('',#479,#412,#244,.T.);
#618=EDGE_CURVE('',#480,#479,#245,.T.);
#619=EDGE_CURVE('',#480,#411,#246,.T.);
#620=EDGE_CURVE('',#463,#480,#247,.T.);
#621=ORIENTED_EDGE('',*,*,#481,.F.);
#622=ORIENTED_EDGE('',*,*,#482,.F.);
#623=ORIENTED_EDGE('',*,*,#483,.F.);
#624=ORIENTED_EDGE('',*,*,#484,.F.);
#625=ORIENTED_EDGE('',*,*,#485,.T.);
#626=ORIENTED_EDGE('',*,*,#482,.T.);
#627=ORIENTED_EDGE('',*,*,#486,.T.);
#628=ORIENTED_EDGE('',*,*,#487,.T.);
#629=ORIENTED_EDGE('',*,*,#488,.T.);
#630=ORIENTED_EDGE('',*,*,#489,.T.);
#631=ORIENTED_EDGE('',*,*,#490,.T.);
#632=ORIENTED_EDGE('',*,*,#491,.T.);
#633=ORIENTED_EDGE('',*,*,#492,.T.);
#634=ORIENTED_EDGE('',*,*,#493,.T.);
#635=ORIENTED_EDGE('',*,*,#494,.T.);
#636=ORIENTED_EDGE('',*,*,#495,.T.);
#637=ORIENTED_EDGE('',*,*,#496,.T.);
#638=ORIENTED_EDGE('',*,*,#484,.T.);
#639=ORIENTED_EDGE('',*,*,#497,.T.);
#640=ORIENTED_EDGE('',*,*,#498,.T.);
#641=ORIENTED_EDGE('',*,*,#499,.T.);
#642=ORIENTED_EDGE('',*,*,#500,.T.);
#643=ORIENTED_EDGE('',*,*,#501,.T.);
#644=ORIENTED_EDGE('',*,*,#502,.T.);
#645=ORIENTED_EDGE('',*,*,#503,.T.);
#646=ORIENTED_EDGE('',*,*,#504,.T.);
#647=ORIENTED_EDGE('',*,*,#505,.T.);
#648=ORIENTED_EDGE('',*,*,#506,.T.);
#649=ORIENTED_EDGE('',*,*,#507,.T.);
#650=ORIENTED_EDGE('',*,*,#508,.T.);
#651=ORIENTED_EDGE('',*,*,#509,.T.);
#652=ORIENTED_EDGE('',*,*,#510,.T.);
#653=ORIENTED_EDGE('',*,*,#511,.T.);
#654=ORIENTED_EDGE('',*,*,#512,.T.);
#655=ORIENTED_EDGE('',*,*,#513,.T.);
#656=ORIENTED_EDGE('',*,*,#514,.T.);
#657=ORIENTED_EDGE('',*,*,#515,.T.);
#658=ORIENTED_EDGE('',*,*,#516,.T.);
#659=ORIENTED_EDGE('',*,*,#517,.T.);
#660=ORIENTED_EDGE('',*,*,#518,.T.);
#661=ORIENTED_EDGE('',*,*,#519,.T.);
#662=ORIENTED_EDGE('',*,*,#520,.T.);
#663=ORIENTED_EDGE('',*,*,#521,.T.);
#664=ORIENTED_EDGE('',*,*,#522,.T.);
#665=ORIENTED_EDGE('',*,*,#523,.T.);
#666=ORIENTED_EDGE('',*,*,#524,.F.);
#667=ORIENTED_EDGE('',*,*,#488,.F.);
#668=ORIENTED_EDGE('',*,*,#525,.F.);
#669=ORIENTED_EDGE('',*,*,#526,.F.);
#670=ORIENTED_EDGE('',*,*,#527,.F.);
#671=ORIENTED_EDGE('',*,*,#526,.T.);
#672=ORIENTED_EDGE('',*,*,#528,.F.);
#673=ORIENTED_EDGE('',*,*,#529,.F.);
#674=ORIENTED_EDGE('',*,*,#530,.F.);
#675=ORIENTED_EDGE('',*,*,#529,.T.);
#676=ORIENTED_EDGE('',*,*,#531,.F.);
#677=ORIENTED_EDGE('',*,*,#532,.F.);
#678=ORIENTED_EDGE('',*,*,#533,.F.);
#679=ORIENTED_EDGE('',*,*,#532,.T.);
#680=ORIENTED_EDGE('',*,*,#534,.F.);
#681=ORIENTED_EDGE('',*,*,#535,.F.);
#682=ORIENTED_EDGE('',*,*,#536,.F.);
#683=ORIENTED_EDGE('',*,*,#535,.T.);
#684=ORIENTED_EDGE('',*,*,#537,.F.);
#685=ORIENTED_EDGE('',*,*,#521,.F.);
#686=ORIENTED_EDGE('',*,*,#538,.F.);
#687=ORIENTED_EDGE('',*,*,#486,.F.);
#688=ORIENTED_EDGE('',*,*,#481,.T.);
#689=ORIENTED_EDGE('',*,*,#485,.F.);
#690=ORIENTED_EDGE('',*,*,#539,.F.);
#691=ORIENTED_EDGE('',*,*,#540,.T.);
#692=ORIENTED_EDGE('',*,*,#541,.F.);
#693=ORIENTED_EDGE('',*,*,#540,.F.);
#694=ORIENTED_EDGE('',*,*,#487,.F.);
#695=ORIENTED_EDGE('',*,*,#538,.T.);
#696=ORIENTED_EDGE('',*,*,#539,.T.);
#697=ORIENTED_EDGE('',*,*,#522,.F.);
#698=ORIENTED_EDGE('',*,*,#537,.T.);
#699=ORIENTED_EDGE('',*,*,#534,.T.);
#700=ORIENTED_EDGE('',*,*,#531,.T.);
#701=ORIENTED_EDGE('',*,*,#528,.T.);
#702=ORIENTED_EDGE('',*,*,#525,.T.);
#703=ORIENTED_EDGE('',*,*,#542,.F.);
#704=ORIENTED_EDGE('',*,*,#499,.F.);
#705=ORIENTED_EDGE('',*,*,#543,.F.);
#706=ORIENTED_EDGE('',*,*,#544,.F.);
#707=ORIENTED_EDGE('',*,*,#545,.F.);
#708=ORIENTED_EDGE('',*,*,#544,.T.);
#709=ORIENTED_EDGE('',*,*,#546,.F.);
#710=ORIENTED_EDGE('',*,*,#547,.F.);
#711=ORIENTED_EDGE('',*,*,#548,.F.);
#712=ORIENTED_EDGE('',*,*,#547,.T.);
#713=ORIENTED_EDGE('',*,*,#549,.F.);
#714=ORIENTED_EDGE('',*,*,#550,.F.);
#715=ORIENTED_EDGE('',*,*,#551,.F.);
#716=ORIENTED_EDGE('',*,*,#550,.T.);
#717=ORIENTED_EDGE('',*,*,#552,.F.);
#718=ORIENTED_EDGE('',*,*,#553,.F.);
#719=ORIENTED_EDGE('',*,*,#554,.F.);
#720=ORIENTED_EDGE('',*,*,#553,.T.);
#721=ORIENTED_EDGE('',*,*,#555,.F.);
#722=ORIENTED_EDGE('',*,*,#494,.F.);
#723=ORIENTED_EDGE('',*,*,#556,.F.);
#724=ORIENTED_EDGE('',*,*,#497,.F.);
#725=ORIENTED_EDGE('',*,*,#483,.T.);
#726=ORIENTED_EDGE('',*,*,#496,.F.);
#727=ORIENTED_EDGE('',*,*,#557,.F.);
#728=ORIENTED_EDGE('',*,*,#558,.T.);
#729=ORIENTED_EDGE('',*,*,#559,.F.);
#730=ORIENTED_EDGE('',*,*,#558,.F.);
#731=ORIENTED_EDGE('',*,*,#498,.F.);
#732=ORIENTED_EDGE('',*,*,#556,.T.);
#733=ORIENTED_EDGE('',*,*,#557,.T.);
#734=ORIENTED_EDGE('',*,*,#495,.F.);
#735=ORIENTED_EDGE('',*,*,#555,.T.);
#736=ORIENTED_EDGE('',*,*,#552,.T.);
#737=ORIENTED_EDGE('',*,*,#549,.T.);
#738=ORIENTED_EDGE('',*,*,#546,.T.);
#739=ORIENTED_EDGE('',*,*,#543,.T.);
#740=ORIENTED_EDGE('',*,*,#560,.F.);
#741=ORIENTED_EDGE('',*,*,#515,.F.);
#742=ORIENTED_EDGE('',*,*,#561,.F.);
#743=ORIENTED_EDGE('',*,*,#518,.F.);
#744=ORIENTED_EDGE('',*,*,#562,.F.);
#745=ORIENTED_EDGE('',*,*,#563,.F.);
#746=ORIENTED_EDGE('',*,*,#564,.F.);
#747=ORIENTED_EDGE('',*,*,#563,.T.);
#748=ORIENTED_EDGE('',*,*,#565,.F.);
#749=ORIENTED_EDGE('',*,*,#566,.F.);
#750=ORIENTED_EDGE('',*,*,#567,.F.);
#751=ORIENTED_EDGE('',*,*,#566,.T.);
#752=ORIENTED_EDGE('',*,*,#568,.F.);
#753=ORIENTED_EDGE('',*,*,#569,.F.);
#754=ORIENTED_EDGE('',*,*,#570,.F.);
#755=ORIENTED_EDGE('',*,*,#569,.T.);
#756=ORIENTED_EDGE('',*,*,#571,.F.);
#757=ORIENTED_EDGE('',*,*,#572,.F.);
#758=ORIENTED_EDGE('',*,*,#573,.F.);
#759=ORIENTED_EDGE('',*,*,#572,.T.);
#760=ORIENTED_EDGE('',*,*,#574,.F.);
#761=ORIENTED_EDGE('',*,*,#575,.T.);
#762=ORIENTED_EDGE('',*,*,#576,.F.);
#763=ORIENTED_EDGE('',*,*,#516,.F.);
#764=ORIENTED_EDGE('',*,*,#560,.T.);
#765=ORIENTED_EDGE('',*,*,#514,.F.);
#766=ORIENTED_EDGE('',*,*,#577,.F.);
#767=ORIENTED_EDGE('',*,*,#578,.T.);
#768=ORIENTED_EDGE('',*,*,#579,.F.);
#769=ORIENTED_EDGE('',*,*,#578,.F.);
#770=ORIENTED_EDGE('',*,*,#517,.F.);
#771=ORIENTED_EDGE('',*,*,#576,.T.);
#772=ORIENTED_EDGE('',*,*,#577,.T.);
#773=ORIENTED_EDGE('',*,*,#513,.F.);
#774=ORIENTED_EDGE('',*,*,#574,.T.);
#775=ORIENTED_EDGE('',*,*,#571,.T.);
#776=ORIENTED_EDGE('',*,*,#568,.T.);
#777=ORIENTED_EDGE('',*,*,#565,.T.);
#778=ORIENTED_EDGE('',*,*,#562,.T.);
#779=ORIENTED_EDGE('',*,*,#580,.F.);
#780=ORIENTED_EDGE('',*,*,#581,.T.);
#781=ORIENTED_EDGE('',*,*,#582,.F.);
#782=ORIENTED_EDGE('',*,*,#583,.T.);
#783=ORIENTED_EDGE('',*,*,#580,.T.);
#784=ORIENTED_EDGE('',*,*,#583,.F.);
#785=ORIENTED_EDGE('',*,*,#581,.F.);
#786=ORIENTED_EDGE('',*,*,#584,.T.);
#787=ORIENTED_EDGE('',*,*,#523,.F.);
#788=ORIENTED_EDGE('',*,*,#584,.F.);
#789=ORIENTED_EDGE('',*,*,#585,.F.);
#790=ORIENTED_EDGE('',*,*,#586,.T.);
#791=ORIENTED_EDGE('',*,*,#504,.F.);
#792=ORIENTED_EDGE('',*,*,#587,.F.);
#793=ORIENTED_EDGE('',*,*,#588,.T.);
#794=ORIENTED_EDGE('',*,*,#587,.T.);
#795=ORIENTED_EDGE('',*,*,#503,.F.);
#796=ORIENTED_EDGE('',*,*,#589,.F.);
#797=ORIENTED_EDGE('',*,*,#590,.T.);
#798=ORIENTED_EDGE('',*,*,#589,.T.);
#799=ORIENTED_EDGE('',*,*,#502,.F.);
#800=ORIENTED_EDGE('',*,*,#591,.F.);
#801=ORIENTED_EDGE('',*,*,#592,.T.);
#802=ORIENTED_EDGE('',*,*,#591,.T.);
#803=ORIENTED_EDGE('',*,*,#501,.F.);
#804=ORIENTED_EDGE('',*,*,#593,.F.);
#805=ORIENTED_EDGE('',*,*,#493,.F.);
#806=ORIENTED_EDGE('',*,*,#594,.F.);
#807=ORIENTED_EDGE('',*,*,#595,.T.);
#808=ORIENTED_EDGE('',*,*,#593,.T.);
#809=ORIENTED_EDGE('',*,*,#500,.F.);
#810=ORIENTED_EDGE('',*,*,#542,.T.);
#811=ORIENTED_EDGE('',*,*,#545,.T.);
#812=ORIENTED_EDGE('',*,*,#548,.T.);
#813=ORIENTED_EDGE('',*,*,#551,.T.);
#814=ORIENTED_EDGE('',*,*,#554,.T.);
#815=ORIENTED_EDGE('',*,*,#559,.T.);
#816=ORIENTED_EDGE('',*,*,#596,.T.);
#817=ORIENTED_EDGE('',*,*,#594,.T.);
#818=ORIENTED_EDGE('',*,*,#492,.F.);
#819=ORIENTED_EDGE('',*,*,#597,.F.);
#820=ORIENTED_EDGE('',*,*,#598,.T.);
#821=ORIENTED_EDGE('',*,*,#597,.T.);
#822=ORIENTED_EDGE('',*,*,#491,.F.);
#823=ORIENTED_EDGE('',*,*,#599,.F.);
#824=ORIENTED_EDGE('',*,*,#600,.T.);
#825=ORIENTED_EDGE('',*,*,#599,.T.);
#826=ORIENTED_EDGE('',*,*,#490,.F.);
#827=ORIENTED_EDGE('',*,*,#601,.F.);
#828=ORIENTED_EDGE('',*,*,#520,.F.);
#829=ORIENTED_EDGE('',*,*,#602,.F.);
#830=ORIENTED_EDGE('',*,*,#603,.T.);
#831=ORIENTED_EDGE('',*,*,#601,.T.);
#832=ORIENTED_EDGE('',*,*,#489,.F.);
#833=ORIENTED_EDGE('',*,*,#524,.T.);
#834=ORIENTED_EDGE('',*,*,#527,.T.);
#835=ORIENTED_EDGE('',*,*,#530,.T.);
#836=ORIENTED_EDGE('',*,*,#533,.T.);
#837=ORIENTED_EDGE('',*,*,#536,.T.);
#838=ORIENTED_EDGE('',*,*,#541,.T.);
#839=ORIENTED_EDGE('',*,*,#604,.F.);
#840=ORIENTED_EDGE('',*,*,#605,.T.);
#841=ORIENTED_EDGE('',*,*,#602,.T.);
#842=ORIENTED_EDGE('',*,*,#519,.F.);
#843=ORIENTED_EDGE('',*,*,#561,.T.);
#844=ORIENTED_EDGE('',*,*,#564,.T.);
#845=ORIENTED_EDGE('',*,*,#567,.T.);
#846=ORIENTED_EDGE('',*,*,#570,.T.);
#847=ORIENTED_EDGE('',*,*,#573,.T.);
#848=ORIENTED_EDGE('',*,*,#579,.T.);
#849=ORIENTED_EDGE('',*,*,#606,.T.);
#850=ORIENTED_EDGE('',*,*,#604,.T.);
#851=ORIENTED_EDGE('',*,*,#575,.F.);
#852=ORIENTED_EDGE('',*,*,#512,.F.);
#853=ORIENTED_EDGE('',*,*,#607,.F.);
#854=ORIENTED_EDGE('',*,*,#608,.T.);
#855=ORIENTED_EDGE('',*,*,#607,.T.);
#856=ORIENTED_EDGE('',*,*,#511,.F.);
#857=ORIENTED_EDGE('',*,*,#609,.F.);
#858=ORIENTED_EDGE('',*,*,#610,.F.);
#859=ORIENTED_EDGE('',*,*,#609,.T.);
#860=ORIENTED_EDGE('',*,*,#510,.F.);
#861=ORIENTED_EDGE('',*,*,#611,.F.);
#862=ORIENTED_EDGE('',*,*,#612,.F.);
#863=ORIENTED_EDGE('',*,*,#611,.T.);
#864=ORIENTED_EDGE('',*,*,#509,.F.);
#865=ORIENTED_EDGE('',*,*,#613,.F.);
#866=ORIENTED_EDGE('',*,*,#614,.F.);
#867=ORIENTED_EDGE('',*,*,#613,.T.);
#868=ORIENTED_EDGE('',*,*,#508,.F.);
#869=ORIENTED_EDGE('',*,*,#615,.F.);
#870=ORIENTED_EDGE('',*,*,#616,.F.);
#871=ORIENTED_EDGE('',*,*,#615,.T.);
#872=ORIENTED_EDGE('',*,*,#507,.F.);
#873=ORIENTED_EDGE('',*,*,#617,.F.);
#874=ORIENTED_EDGE('',*,*,#618,.T.);
#875=ORIENTED_EDGE('',*,*,#617,.T.);
#876=ORIENTED_EDGE('',*,*,#506,.F.);
#877=ORIENTED_EDGE('',*,*,#619,.F.);
#878=ORIENTED_EDGE('',*,*,#620,.T.);
#879=ORIENTED_EDGE('',*,*,#619,.T.);
#880=ORIENTED_EDGE('',*,*,#505,.F.);
#881=ORIENTED_EDGE('',*,*,#586,.F.);
#882=ORIENTED_EDGE('',*,*,#620,.F.);
#883=ORIENTED_EDGE('',*,*,#585,.T.);
#884=ORIENTED_EDGE('',*,*,#588,.F.);
#885=ORIENTED_EDGE('',*,*,#590,.F.);
#886=ORIENTED_EDGE('',*,*,#592,.F.);
#887=ORIENTED_EDGE('',*,*,#595,.F.);
#888=ORIENTED_EDGE('',*,*,#596,.F.);
#889=ORIENTED_EDGE('',*,*,#598,.F.);
#890=ORIENTED_EDGE('',*,*,#600,.F.);
#891=ORIENTED_EDGE('',*,*,#603,.F.);
#892=ORIENTED_EDGE('',*,*,#605,.F.);
#893=ORIENTED_EDGE('',*,*,#606,.F.);
#894=ORIENTED_EDGE('',*,*,#608,.F.);
#895=ORIENTED_EDGE('',*,*,#610,.T.);
#896=ORIENTED_EDGE('',*,*,#612,.T.);
#897=ORIENTED_EDGE('',*,*,#614,.T.);
#898=ORIENTED_EDGE('',*,*,#616,.T.);
#899=ORIENTED_EDGE('',*,*,#618,.F.);
#900=ORIENTED_EDGE('',*,*,#582,.T.);
#901=PLANE('',#999);
#902=PLANE('',#1001);
#903=PLANE('',#1003);
#904=PLANE('',#1005);
#905=PLANE('',#1009);
#906=PLANE('',#1013);
#907=PLANE('',#1018);
#908=PLANE('',#1019);
#909=PLANE('',#1023);
#910=PLANE('',#1027);
#911=PLANE('',#1032);
#912=PLANE('',#1033);
#913=PLANE('',#1035);
#914=PLANE('',#1039);
#915=PLANE('',#1043);
#916=PLANE('',#1048);
#917=PLANE('',#1049);
#918=PLANE('',#1055);
#919=PLANE('',#1056);
#920=PLANE('',#1057);
#921=PLANE('',#1058);
#922=PLANE('',#1059);
#923=PLANE('',#1060);
#924=PLANE('',#1061);
#925=PLANE('',#1062);
#926=PLANE('',#1063);
#927=PLANE('',#1064);
#928=PLANE('',#1065);
#929=PLANE('',#1066);
#930=PLANE('',#1067);
#931=PLANE('',#1068);
#932=PLANE('',#1069);
#933=PLANE('',#1070);
#934=PLANE('',#1071);
#935=PLANE('',#1072);
#936=PLANE('',#1073);
#937=ADVANCED_FACE('',(#36),#901,.T.);
#938=ADVANCED_FACE('',(#37),#902,.T.);
#939=ADVANCED_FACE('',(#38,#30),#903,.T.);
#940=ADVANCED_FACE('',(#39),#904,.T.);
#941=ADVANCED_FACE('',(#40),#19,.T.);
#942=ADVANCED_FACE('',(#41),#905,.T.);
#943=ADVANCED_FACE('',(#42),#20,.T.);
#944=ADVANCED_FACE('',(#43),#906,.T.);
#945=ADVANCED_FACE('',(#44),#21,.F.);
#946=ADVANCED_FACE('',(#45),#907,.F.);
#947=ADVANCED_FACE('',(#46),#908,.T.);
#948=ADVANCED_FACE('',(#47),#22,.T.);
#949=ADVANCED_FACE('',(#48),#909,.T.);
#950=ADVANCED_FACE('',(#49),#23,.T.);
#951=ADVANCED_FACE('',(#50),#910,.T.);
#952=ADVANCED_FACE('',(#51),#24,.F.);
#953=ADVANCED_FACE('',(#52),#911,.F.);
#954=ADVANCED_FACE('',(#53),#912,.T.);
#955=ADVANCED_FACE('',(#54),#913,.T.);
#956=ADVANCED_FACE('',(#55),#25,.T.);
#957=ADVANCED_FACE('',(#56),#914,.T.);
#958=ADVANCED_FACE('',(#57),#26,.T.);
#959=ADVANCED_FACE('',(#58),#915,.T.);
#960=ADVANCED_FACE('',(#59),#27,.F.);
#961=ADVANCED_FACE('',(#60),#916,.F.);
#962=ADVANCED_FACE('',(#61,#31),#917,.F.);
#963=ADVANCED_FACE('',(#62),#28,.F.);
#964=ADVANCED_FACE('',(#63),#29,.F.);
#965=ADVANCED_FACE('',(#64),#918,.T.);
#966=ADVANCED_FACE('',(#65),#919,.T.);
#967=ADVANCED_FACE('',(#66),#920,.T.);
#968=ADVANCED_FACE('',(#67),#921,.T.);
#969=ADVANCED_FACE('',(#68,#32),#922,.T.);
#970=ADVANCED_FACE('',(#69),#923,.T.);
#971=ADVANCED_FACE('',(#70),#924,.T.);
#972=ADVANCED_FACE('',(#71),#925,.T.);
#973=ADVANCED_FACE('',(#72,#33),#926,.T.);
#974=ADVANCED_FACE('',(#73,#34),#927,.T.);
#975=ADVANCED_FACE('',(#74),#928,.T.);
#976=ADVANCED_FACE('',(#75),#929,.T.);
#977=ADVANCED_FACE('',(#76),#930,.T.);
#978=ADVANCED_FACE('',(#77),#931,.T.);
#979=ADVANCED_FACE('',(#78),#932,.T.);
#980=ADVANCED_FACE('',(#79),#933,.T.);
#981=ADVANCED_FACE('',(#80),#934,.T.);
#982=ADVANCED_FACE('',(#81),#935,.T.);
#983=ADVANCED_FACE('',(#82,#35),#936,.T.);
#984=CLOSED_SHELL('',(#937,#938,#939,#940,#941,#942,#943,#944,#945,#946,
#947,#948,#949,#950,#951,#952,#953,#954,#955,#956,#957,#958,#959,#960,#961,
#962,#963,#964,#965,#966,#967,#968,#969,#970,#971,#972,#973,#974,#975,#976,
#977,#978,#979,#980,#981,#982,#983));
#985=DERIVED_UNIT_ELEMENT(#987,1.);
#986=DERIVED_UNIT_ELEMENT(#1633,-3.);
#987=(
MASS_UNIT()
NAMED_UNIT(*)
SI_UNIT(.KILO.,.GRAM.)
);
#988=DERIVED_UNIT((#985,#986));
#989=MEASURE_REPRESENTATION_ITEM('density measure',
POSITIVE_RATIO_MEASURE(7850.),#988);
#990=PROPERTY_DEFINITION_REPRESENTATION(#995,#992);
#991=PROPERTY_DEFINITION_REPRESENTATION(#996,#993);
#992=REPRESENTATION('material name',(#994),#1630);
#993=REPRESENTATION('density',(#989),#1630);
#994=DESCRIPTIVE_REPRESENTATION_ITEM('Steel','Steel');
#995=PROPERTY_DEFINITION('material property','material name',#1645);
#996=PROPERTY_DEFINITION('material property','density of part',#1645);
#997=AXIS2_PLACEMENT_3D('',#1343,#1075,#1076);
#998=AXIS2_PLACEMENT_3D('',#1344,#1077,#1078);
#999=AXIS2_PLACEMENT_3D('',#1345,#1079,#1080);
#1000=AXIS2_PLACEMENT_3D('',#1348,#1081,#1082);
#1001=AXIS2_PLACEMENT_3D('',#1350,#1084,#1085);
#1002=AXIS2_PLACEMENT_3D('',#1353,#1086,#1087);
#1003=AXIS2_PLACEMENT_3D('',#1355,#1089,#1090);
#1004=AXIS2_PLACEMENT_3D('',#1431,#1129,#1130);
#1005=AXIS2_PLACEMENT_3D('',#1432,#1131,#1132);
#1006=AXIS2_PLACEMENT_3D('',#1438,#1136,#1137);
#1007=AXIS2_PLACEMENT_3D('',#1440,#1138,#1139);
#1008=AXIS2_PLACEMENT_3D('',#1442,#1140,#1141);
#1009=AXIS2_PLACEMENT_3D('',#1444,#1143,#1144);
#1010=AXIS2_PLACEMENT_3D('',#1450,#1148,#1149);
#1011=AXIS2_PLACEMENT_3D('',#1452,#1150,#1151);
#1012=AXIS2_PLACEMENT_3D('',#1454,#1152,#1153);
#1013=AXIS2_PLACEMENT_3D('',#1456,#1155,#1156);
#1014=AXIS2_PLACEMENT_3D('',#1459,#1159,#1160);
#1015=AXIS2_PLACEMENT_3D('',#1461,#1161,#1162);
#1016=AXIS2_PLACEMENT_3D('',#1462,#1163,#1164);
#1017=AXIS2_PLACEMENT_3D('',#1465,#1166,#1167);
#1018=AXIS2_PLACEMENT_3D('',#1466,#1168,#1169);
#1019=AXIS2_PLACEMENT_3D('',#1467,#1170,#1171);
#1020=AXIS2_PLACEMENT_3D('',#1473,#1175,#1176);
#1021=AXIS2_PLACEMENT_3D('',#1475,#1177,#1178);
#1022=AXIS2_PLACEMENT_3D('',#1477,#1179,#1180);
#1023=AXIS2_PLACEMENT_3D('',#1479,#1182,#1183);
#1024=AXIS2_PLACEMENT_3D('',#1485,#1187,#1188);
#1025=AXIS2_PLACEMENT_3D('',#1487,#1189,#1190);
#1026=AXIS2_PLACEMENT_3D('',#1489,#1191,#1192);
#1027=AXIS2_PLACEMENT_3D('',#1491,#1194,#1195);
#1028=AXIS2_PLACEMENT_3D('',#1494,#1198,#1199);
#1029=AXIS2_PLACEMENT_3D('',#1496,#1200,#1201);
#1030=AXIS2_PLACEMENT_3D('',#1497,#1202,#1203);
#1031=AXIS2_PLACEMENT_3D('',#1500,#1205,#1206);
#1032=AXIS2_PLACEMENT_3D('',#1501,#1207,#1208);
#1033=AXIS2_PLACEMENT_3D('',#1502,#1209,#1210);
#1034=AXIS2_PLACEMENT_3D('',#1503,#1211,#1212);
#1035=AXIS2_PLACEMENT_3D('',#1504,#1213,#1214);
#1036=AXIS2_PLACEMENT_3D('',#1510,#1218,#1219);
#1037=AXIS2_PLACEMENT_3D('',#1512,#1220,#1221);
#1038=AXIS2_PLACEMENT_3D('',#1514,#1222,#1223);
#1039=AXIS2_PLACEMENT_3D('',#1516,#1225,#1226);
#1040=AXIS2_PLACEMENT_3D('',#1522,#1230,#1231);
#1041=AXIS2_PLACEMENT_3D('',#1524,#1232,#1233);
#1042=AXIS2_PLACEMENT_3D('',#1526,#1234,#1235);
#1043=AXIS2_PLACEMENT_3D('',#1528,#1237,#1238);
#1044=AXIS2_PLACEMENT_3D('',#1533,#1242,#1243);
#1045=AXIS2_PLACEMENT_3D('',#1535,#1244,#1245);
#1046=AXIS2_PLACEMENT_3D('',#1536,#1246,#1247);
#1047=AXIS2_PLACEMENT_3D('',#1539,#1249,#1250);
#1048=AXIS2_PLACEMENT_3D('',#1540,#1251,#1252);
#1049=AXIS2_PLACEMENT_3D('',#1541,#1253,#1254);
#1050=AXIS2_PLACEMENT_3D('',#1543,#1255,#1256);
#1051=AXIS2_PLACEMENT_3D('',#1545,#1257,#1258);
#1052=AXIS2_PLACEMENT_3D('',#1546,#1259,#1260);
#1053=AXIS2_PLACEMENT_3D('',#1548,#1261,#1262);
#1054=AXIS2_PLACEMENT_3D('',#1550,#1264,#1265);
#1055=AXIS2_PLACEMENT_3D('',#1552,#1267,#1268);
#1056=AXIS2_PLACEMENT_3D('',#1558,#1272,#1273);
#1057=AXIS2_PLACEMENT_3D('',#1562,#1276,#1277);
#1058=AXIS2_PLACEMENT_3D('',#1566,#1280,#1281);
#1059=AXIS2_PLACEMENT_3D('',#1570,#1284,#1285);
#1060=AXIS2_PLACEMENT_3D('',#1574,#1288,#1289);
#1061=AXIS2_PLACEMENT_3D('',#1578,#1292,#1293);
#1062=AXIS2_PLACEMENT_3D('',#1582,#1296,#1297);
#1063=AXIS2_PLACEMENT_3D('',#1586,#1300,#1301);
#1064=AXIS2_PLACEMENT_3D('',#1590,#1304,#1305);
#1065=AXIS2_PLACEMENT_3D('',#1594,#1308,#1309);
#1066=AXIS2_PLACEMENT_3D('',#1598,#1312,#1313);
#1067=AXIS2_PLACEMENT_3D('',#1602,#1316,#1317);
#1068=AXIS2_PLACEMENT_3D('',#1606,#1320,#1321);
#1069=AXIS2_PLACEMENT_3D('',#1610,#1324,#1325);
#1070=AXIS2_PLACEMENT_3D('',#1614,#1328,#1329);
#1071=AXIS2_PLACEMENT_3D('',#1618,#1332,#1333);
#1072=AXIS2_PLACEMENT_3D('',#1622,#1336,#1337);
#1073=AXIS2_PLACEMENT_3D('',#1624,#1339,#1340);
#1074=AXIS2_PLACEMENT_3D('',#1625,#1341,#1342);
#1075=DIRECTION('axis',(0.,0.,1.));
#1076=DIRECTION('refdir',(1.,0.,0.));
#1077=DIRECTION('axis',(0.,0.,1.));
#1078=DIRECTION('refdir',(1.,0.,0.));
#1079=DIRECTION('center_axis',(1.,0.,0.));
#1080=DIRECTION('ref_axis',(0.,1.,0.));
#1081=DIRECTION('center_axis',(-1.,0.,0.));
#1082=DIRECTION('ref_axis',(0.,1.,0.));
#1083=DIRECTION('',(0.,-1.,0.));
#1084=DIRECTION('center_axis',(1.,0.,0.));
#1085=DIRECTION('ref_axis',(0.,1.,0.));
#1086=DIRECTION('center_axis',(-1.,0.,0.));
#1087=DIRECTION('ref_axis',(0.,1.,0.));
#1088=DIRECTION('',(0.,-1.,0.));
#1089=DIRECTION('center_axis',(0.,0.,-1.));
#1090=DIRECTION('ref_axis',(-1.,0.,0.));
#1091=DIRECTION('',(-1.,0.,0.));
#1092=DIRECTION('',(1.,0.,0.));
#1093=DIRECTION('',(6.22301527786115E-60,-1.,0.));
#1094=DIRECTION('',(1.,0.,0.));
#1095=DIRECTION('',(0.,-1.,0.));
#1096=DIRECTION('',(1.,-1.48029736616688E-16,0.));
#1097=DIRECTION('',(0.,-1.,0.));
#1098=DIRECTION('',(-1.,-2.96059473233375E-16,0.));
#1099=DIRECTION('',(0.,-1.,0.));
#1100=DIRECTION('',(-1.,0.,0.));
#1101=DIRECTION('',(6.22301527786115E-60,-1.,0.));
#1102=DIRECTION('',(-1.,0.,0.));
#1103=DIRECTION('',(1.,0.,0.));
#1104=DIRECTION('',(6.22301527786115E-60,-1.,0.));
#1105=DIRECTION('',(1.,0.,0.));
#1106=DIRECTION('',(0.,-1.,0.));
#1107=DIRECTION('',(-1.,0.,0.));
#1108=DIRECTION('',(1.30614471767983E-15,-1.,0.));
#1109=DIRECTION('',(1.,0.,0.));
#1110=DIRECTION('',(0.,-1.,0.));
#1111=DIRECTION('',(-1.,0.,0.));
#1112=DIRECTION('',(0.,1.,0.));
#1113=DIRECTION('',(0.866025403784439,0.499999999999999,0.));
#1114=DIRECTION('',(0.,1.,0.));
#1115=DIRECTION('',(-1.,0.,0.));
#1116=DIRECTION('',(-0.5,-0.866025403784439,0.));
#1117=DIRECTION('',(-1.,0.,0.));
#1118=DIRECTION('',(-1.63432090640505E-8,1.,0.));
#1119=DIRECTION('',(1.,5.17742362442042E-45,0.));
#1120=DIRECTION('',(0.,-1.,0.));
#1121=DIRECTION('',(1.,0.,0.));
#1122=DIRECTION('',(0.,1.,0.));
#1123=DIRECTION('',(1.,5.17742362442042E-45,0.));
#1124=DIRECTION('',(0.,1.,0.));
#1125=DIRECTION('',(1.,-4.35381578284375E-16,0.));
#1126=DIRECTION('',(0.,-1.,0.));
#1127=DIRECTION('',(-1.,0.,0.));
#1128=DIRECTION('',(6.22301527786115E-60,-1.,0.));
#1129=DIRECTION('center_axis',(0.,0.,1.));
#1130=DIRECTION('ref_axis',(1.,0.,0.));
#1131=DIRECTION('center_axis',(0.,-1.,-6.83214169000102E-15));
#1132=DIRECTION('ref_axis',(0.,-6.83214169000102E-15,1.));
#1133=DIRECTION('',(0.,6.83214169000102E-15,-1.));
#1134=DIRECTION('',(0.,-6.83214169000102E-15,1.));
#1135=DIRECTION('',(-1.,0.,0.));
#1136=DIRECTION('center_axis',(-1.,0.,0.));
#1137=DIRECTION('ref_axis',(0.,-1.,-5.92118946466745E-15));
#1138=DIRECTION('center_axis',(1.,6.22301527786109E-60,-6.07559658486E-61));
#1139=DIRECTION('ref_axis',(6.22301527786109E-60,-1.,-5.92118946466745E-15));
#1140=DIRECTION('center_axis',(-1.,-6.22301527786109E-60,6.07559658486E-61));
#1141=DIRECTION('ref_axis',(6.22301527786109E-60,-1.,-5.92118946466745E-15));
#1142=DIRECTION('',(-1.,0.,0.));
#1143=DIRECTION('center_axis',(0.,0.,-1.));
#1144=DIRECTION('ref_axis',(9.07523061354751E-60,-1.,0.));
#1145=DIRECTION('',(-9.07523061354751E-60,1.,0.));
#1146=DIRECTION('',(9.07523061354751E-60,-1.,0.));
#1147=DIRECTION('',(-1.,0.,0.));
#1148=DIRECTION('center_axis',(-1.,0.,0.));
#1149=DIRECTION('ref_axis',(0.,0.,-1.));
#1150=DIRECTION('center_axis',(1.,-2.48920611114446E-59,3.72774500958267E-45));
#1151=DIRECTION('ref_axis',(3.72774500958267E-45,0.,-1.));
#1152=DIRECTION('center_axis',(-1.,2.48920611114446E-59,-3.72774500958267E-45));
#1153=DIRECTION('ref_axis',(3.72774500958267E-45,0.,-1.));
#1154=DIRECTION('',(-1.,0.,0.));
#1155=DIRECTION('center_axis',(0.,1.,1.02482125350016E-14));
#1156=DIRECTION('ref_axis',(1.7204976967305E-44,1.02482125350016E-14,-1.));
#1157=DIRECTION('',(-1.7204976967305E-44,-1.02482125350016E-14,1.));
#1158=DIRECTION('',(1.7204976967305E-44,1.02482125350016E-14,-1.));
#1159=DIRECTION('center_axis',(-1.,0.,0.));
#1160=DIRECTION('ref_axis',(0.,1.,0.));
#1161=DIRECTION('center_axis',(1.,0.,0.));
#1162=DIRECTION('ref_axis',(0.,1.,0.));
#1163=DIRECTION('center_axis',(1.,0.,0.));
#1164=DIRECTION('ref_axis',(0.,1.,0.));
#1165=DIRECTION('',(1.,0.,0.));
#1166=DIRECTION('center_axis',(-1.,0.,0.));
#1167=DIRECTION('ref_axis',(0.,1.,0.));
#1168=DIRECTION('center_axis',(1.,6.22301527786115E-60,-6.22301527786078E-61));
#1169=DIRECTION('ref_axis',(-6.22301527786115E-60,1.,0.));
#1170=DIRECTION('center_axis',(0.,-1.,-6.83214169000097E-15));
#1171=DIRECTION('ref_axis',(0.,-6.83214169000097E-15,1.));
#1172=DIRECTION('',(0.,6.83214169000097E-15,-1.));
#1173=DIRECTION('',(0.,-6.83214169000097E-15,1.));
#1174=DIRECTION('',(-1.,0.,0.));
#1175=DIRECTION('center_axis',(-1.,0.,0.));
#1176=DIRECTION('ref_axis',(0.,-1.,-5.92118946466745E-15));
#1177=DIRECTION('center_axis',(1.,6.22301527786109E-60,-6.07559658486E-61));
#1178=DIRECTION('ref_axis',(6.22301527786109E-60,-1.,-5.92118946466745E-15));
#1179=DIRECTION('center_axis',(-1.,-6.22301527786109E-60,6.07559658486E-61));
#1180=DIRECTION('ref_axis',(6.22301527786109E-60,-1.,-5.92118946466745E-15));
#1181=DIRECTION('',(-1.,0.,0.));
#1182=DIRECTION('center_axis',(0.,0.,-1.));
#1183=DIRECTION('ref_axis',(9.07523061354751E-60,-1.,0.));
#1184=DIRECTION('',(-9.07523061354751E-60,1.,0.));
#1185=DIRECTION('',(9.07523061354751E-60,-1.,0.));
#1186=DIRECTION('',(-1.,0.,0.));
#1187=DIRECTION('center_axis',(-1.,0.,0.));
#1188=DIRECTION('ref_axis',(0.,0.,-1.));
#1189=DIRECTION('center_axis',(1.,-2.48920611114446E-59,3.72774500958267E-45));
#1190=DIRECTION('ref_axis',(3.72774500958267E-45,0.,-1.));
#1191=DIRECTION('center_axis',(-1.,2.48920611114446E-59,-3.72774500958267E-45));
#1192=DIRECTION('ref_axis',(3.72774500958267E-45,0.,-1.));
#1193=DIRECTION('',(-1.,0.,0.));
#1194=DIRECTION('center_axis',(0.,1.,1.02482125350015E-14));
#1195=DIRECTION('ref_axis',(1.72049769673049E-44,1.02482125350015E-14,-1.));
#1196=DIRECTION('',(-1.72049769673049E-44,-1.02482125350015E-14,1.));
#1197=DIRECTION('',(1.72049769673049E-44,1.02482125350015E-14,-1.));
#1198=DIRECTION('center_axis',(-1.,0.,0.));
#1199=DIRECTION('ref_axis',(0.,1.,0.));
#1200=DIRECTION('center_axis',(1.,0.,0.));
#1201=DIRECTION('ref_axis',(0.,1.,0.));
#1202=DIRECTION('center_axis',(1.,0.,0.));
#1203=DIRECTION('ref_axis',(0.,1.,0.));
#1204=DIRECTION('',(1.,0.,0.));
#1205=DIRECTION('center_axis',(-1.,0.,0.));
#1206=DIRECTION('ref_axis',(0.,1.,0.));
#1207=DIRECTION('center_axis',(1.,6.22301527786115E-60,-6.22301527786078E-61));
#1208=DIRECTION('ref_axis',(-6.22301527786115E-60,1.,0.));
#1209=DIRECTION('center_axis',(0.,1.,0.));
#1210=DIRECTION('ref_axis',(-1.,0.,0.));
#1211=DIRECTION('center_axis',(0.,-1.,0.));
#1212=DIRECTION('ref_axis',(-1.,0.,0.));
#1213=DIRECTION('center_axis',(1.,0.,0.));
#1214=DIRECTION('ref_axis',(0.,0.,1.));
#1215=DIRECTION('',(0.,0.,-1.));
#1216=DIRECTION('',(0.,0.,1.));
#1217=DIRECTION('',(0.,-1.,0.));
#1218=DIRECTION('center_axis',(0.,-1.,0.));
#1219=DIRECTION('ref_axis',(1.,0.,-5.59678679249138E-136));
#1220=DIRECTION('center_axis',(-6.22301527786109E-60,1.,-6.07559658486E-61));
#1221=DIRECTION('ref_axis',(1.,6.22301527786109E-60,-5.59678679249138E-136));
#1222=DIRECTION('center_axis',(6.22301527786109E-60,-1.,6.07559658486E-61));
#1223=DIRECTION('ref_axis',(1.,6.22301527786109E-60,-5.59678679249138E-136));
#1224=DIRECTION('',(0.,-1.,0.));
#1225=DIRECTION('center_axis',(0.,0.,-1.));
#1226=DIRECTION('ref_axis',(1.,9.07523061354757E-60,0.));
#1227=DIRECTION('',(-1.,-9.07523061354757E-60,0.));
#1228=DIRECTION('',(1.,9.07523061354757E-60,0.));
#1229=DIRECTION('',(0.,-1.,0.));
#1230=DIRECTION('center_axis',(0.,-1.,0.));
#1231=DIRECTION('ref_axis',(0.,0.,-1.));
#1232=DIRECTION('center_axis',(2.48920611114446E-59,1.,3.72774500958267E-45));
#1233=DIRECTION('ref_axis',(0.,3.72774500958267E-45,-1.));
#1234=DIRECTION('center_axis',(-2.48920611114446E-59,-1.,-3.72774500958267E-45));
#1235=DIRECTION('ref_axis',(0.,3.72774500958267E-45,-1.));
#1236=DIRECTION('',(0.,-1.,0.));
#1237=DIRECTION('center_axis',(-1.,0.,3.41607084500048E-15));
#1238=DIRECTION('ref_axis',(-3.41607084500048E-15,1.72049769673048E-44,
-1.));
#1239=DIRECTION('',(3.41607084500048E-15,-1.72049769673048E-44,1.));
#1240=DIRECTION('',(-3.41607084500048E-15,1.72049769673048E-44,-1.));
#1241=DIRECTION('',(-1.63432090640505E-8,1.,0.));
#1242=DIRECTION('center_axis',(0.,-1.,0.));
#1243=DIRECTION('ref_axis',(-1.,0.,0.));
#1244=DIRECTION('center_axis',(0.,1.,0.));
#1245=DIRECTION('ref_axis',(-1.,0.,0.));
#1246=DIRECTION('center_axis',(0.,1.,0.));
#1247=DIRECTION('ref_axis',(-1.,0.,0.));
#1248=DIRECTION('',(0.,1.,0.));
#1249=DIRECTION('center_axis',(-4.35381578284375E-16,-1.,0.));
#1250=DIRECTION('ref_axis',(-1.,0.,0.));
#1251=DIRECTION('center_axis',(-5.17742362442042E-45,1.,0.));
#1252=DIRECTION('ref_axis',(-1.,-5.17742362442042E-45,0.));
#1253=DIRECTION('center_axis',(0.,0.,-1.));
#1254=DIRECTION('ref_axis',(1.,0.,0.));
#1255=DIRECTION('center_axis',(0.,0.,-1.));
#1256=DIRECTION('ref_axis',(1.,0.,0.));
#1257=DIRECTION('center_axis',(0.,0.,-1.));
#1258=DIRECTION('ref_axis',(1.,0.,0.));
#1259=DIRECTION('center_axis',(0.,0.,-1.));
#1260=DIRECTION('ref_axis',(1.,0.,0.));
#1261=DIRECTION('center_axis',(0.,0.,-1.));
#1262=DIRECTION('ref_axis',(1.,0.,0.));
#1263=DIRECTION('',(0.,0.,-1.));
#1264=DIRECTION('center_axis',(0.,0.,-1.));
#1265=DIRECTION('ref_axis',(1.,0.,0.));
#1266=DIRECTION('',(0.,0.,-1.));
#1267=DIRECTION('center_axis',(1.,0.,0.));
#1268=DIRECTION('ref_axis',(0.,-1.,0.));
#1269=DIRECTION('',(0.,1.,0.));
#1270=DIRECTION('',(0.,0.,-1.));
#1271=DIRECTION('',(0.,0.,-1.));
#1272=DIRECTION('center_axis',(0.,1.,0.));
#1273=DIRECTION('ref_axis',(1.,0.,0.));
#1274=DIRECTION('',(1.,0.,0.));
#1275=DIRECTION('',(0.,0.,-1.));
#1276=DIRECTION('center_axis',(1.,1.30614471767983E-15,0.));
#1277=DIRECTION('ref_axis',(1.30614471767983E-15,-1.,0.));
#1278=DIRECTION('',(1.30614471767983E-15,-1.,0.));
#1279=DIRECTION('',(0.,0.,-1.));
#1280=DIRECTION('center_axis',(0.,-1.,0.));
#1281=DIRECTION('ref_axis',(-1.,0.,0.));
#1282=DIRECTION('',(-1.,0.,0.));
#1283=DIRECTION('',(0.,0.,-1.));
#1284=DIRECTION('center_axis',(1.,0.,0.));
#1285=DIRECTION('ref_axis',(0.,-1.,0.));
#1286=DIRECTION('',(0.,0.,-1.));
#1287=DIRECTION('',(0.,-1.,0.));
#1288=DIRECTION('center_axis',(2.96059473233375E-16,-1.,0.));
#1289=DIRECTION('ref_axis',(-1.,-2.96059473233375E-16,0.));
#1290=DIRECTION('',(-1.,-2.96059473233375E-16,0.));
#1291=DIRECTION('',(0.,0.,-1.));
#1292=DIRECTION('center_axis',(1.,0.,0.));
#1293=DIRECTION('ref_axis',(0.,-1.,0.));
#1294=DIRECTION('',(0.,-1.,0.));
#1295=DIRECTION('',(0.,0.,-1.));
#1296=DIRECTION('center_axis',(1.48029736616688E-16,1.,0.));
#1297=DIRECTION('ref_axis',(1.,-1.48029736616688E-16,0.));
#1298=DIRECTION('',(1.,-1.48029736616688E-16,0.));
#1299=DIRECTION('',(0.,0.,-1.));
#1300=DIRECTION('center_axis',(1.,0.,0.));
#1301=DIRECTION('ref_axis',(0.,-1.,0.));
#1302=DIRECTION('',(0.,0.,-1.));
#1303=DIRECTION('',(0.,-1.,0.));
#1304=DIRECTION('center_axis',(4.35381578284375E-16,1.,0.));
#1305=DIRECTION('ref_axis',(1.,-4.35381578284375E-16,0.));
#1306=DIRECTION('',(0.,0.,-1.));
#1307=DIRECTION('',(1.,-4.35381578284375E-16,0.));
#1308=DIRECTION('center_axis',(-1.,-1.63432090640505E-8,0.));
#1309=DIRECTION('ref_axis',(-1.63432090640505E-8,1.,0.));
#1310=DIRECTION('',(-1.63432090640505E-8,1.,0.));
#1311=DIRECTION('',(0.,0.,-1.));
#1312=DIRECTION('center_axis',(0.,-1.,0.));
#1313=DIRECTION('ref_axis',(-1.,0.,0.));
#1314=DIRECTION('',(-1.,0.,0.));
#1315=DIRECTION('',(0.,0.,-1.));
#1316=DIRECTION('center_axis',(0.866025403784439,-0.5,0.));
#1317=DIRECTION('ref_axis',(-0.5,-0.866025403784439,0.));
#1318=DIRECTION('',(0.5,0.866025403784439,0.));
#1319=DIRECTION('',(0.,0.,-1.));
#1320=DIRECTION('center_axis',(0.,-1.,0.));
#1321=DIRECTION('ref_axis',(-1.,0.,0.));
#1322=DIRECTION('',(1.,0.,0.));
#1323=DIRECTION('',(0.,0.,-1.));
#1324=DIRECTION('center_axis',(-1.,0.,0.));
#1325=DIRECTION('ref_axis',(0.,1.,0.));
#1326=DIRECTION('',(0.,-1.,0.));
#1327=DIRECTION('',(0.,0.,-1.));
#1328=DIRECTION('center_axis',(-0.499999999999999,0.866025403784439,0.));
#1329=DIRECTION('ref_axis',(0.866025403784439,0.499999999999999,0.));
#1330=DIRECTION('',(-0.866025403784439,-0.499999999999999,0.));
#1331=DIRECTION('',(0.,0.,-1.));
#1332=DIRECTION('center_axis',(-1.,0.,0.));
#1333=DIRECTION('ref_axis',(0.,1.,0.));
#1334=DIRECTION('',(0.,1.,0.));
#1335=DIRECTION('',(0.,0.,-1.));
#1336=DIRECTION('center_axis',(0.,-1.,0.));
#1337=DIRECTION('ref_axis',(-1.,0.,0.));
#1338=DIRECTION('',(-1.,0.,0.));
#1339=DIRECTION('center_axis',(0.,0.,1.));
#1340=DIRECTION('ref_axis',(-1.,0.,0.));
#1341=DIRECTION('',(0.,0.,1.));
#1342=DIRECTION('',(1.,0.,0.));
#1343=CARTESIAN_POINT('',(0.,0.,0.));
#1344=CARTESIAN_POINT('',(0.,0.,0.));
#1345=CARTESIAN_POINT('Origin',(15.4,26.1,45.4));
#1346=CARTESIAN_POINT('',(15.4,24.743534003375,45.));
#1347=CARTESIAN_POINT('',(15.4,27.4564659966251,45.));
#1348=CARTESIAN_POINT('Origin',(15.4,26.1,44.25));
#1349=CARTESIAN_POINT('',(15.4,13.075,45.));
#1350=CARTESIAN_POINT('Origin',(15.4,-26.1,45.4));
#1351=CARTESIAN_POINT('',(15.4,-27.4564659966251,45.));
#1352=CARTESIAN_POINT('',(15.4,-24.743534003375,45.));
#1353=CARTESIAN_POINT('Origin',(15.4,-26.1,44.25));
#1354=CARTESIAN_POINT('',(15.4,-13.025,45.));
#1355=CARTESIAN_POINT('Origin',(7.5,0.0499999999999989,45.));
#1356=CARTESIAN_POINT('',(16.4,27.4564659966251,45.));
#1357=CARTESIAN_POINT('',(20.4,27.4564659966251,45.));
#1358=CARTESIAN_POINT('',(16.4,24.743534003375,45.));
#1359=CARTESIAN_POINT('',(20.4,24.743534003375,45.));
#1360=CARTESIAN_POINT('',(16.4,23.4,45.));
#1361=CARTESIAN_POINT('',(16.4,13.075,45.));
#1362=CARTESIAN_POINT('',(20.4,23.4,45.));
#1363=CARTESIAN_POINT('',(13.95,23.4,45.));
#1364=CARTESIAN_POINT('',(20.4,19.9,45.));
#1365=CARTESIAN_POINT('',(20.4,42.9,45.));
#1366=CARTESIAN_POINT('',(35.4,19.9,45.));
#1367=CARTESIAN_POINT('',(20.4,19.9,45.));
#1368=CARTESIAN_POINT('',(35.4,-19.9,45.));
#1369=CARTESIAN_POINT('',(35.4,19.9,45.));
#1370=CARTESIAN_POINT('',(20.4,-19.9,45.));
#1371=CARTESIAN_POINT('',(35.4,-19.9,45.));
#1372=CARTESIAN_POINT('',(20.4,-23.4,45.));
#1373=CARTESIAN_POINT('',(20.4,-19.9,45.));
#1374=CARTESIAN_POINT('',(16.4,-23.4,45.));
#1375=CARTESIAN_POINT('',(13.95,-23.4,45.));
#1376=CARTESIAN_POINT('',(16.4,-24.743534003375,45.));
#1377=CARTESIAN_POINT('',(16.4,-13.025,45.));
#1378=CARTESIAN_POINT('',(20.4,-24.743534003375,45.));
#1379=CARTESIAN_POINT('',(16.4,-27.4564659966251,45.));
#1380=CARTESIAN_POINT('',(20.4,-27.4564659966251,45.));
#1381=CARTESIAN_POINT('',(16.4,-28.8,45.));
#1382=CARTESIAN_POINT('',(16.4,-13.025,45.));
#1383=CARTESIAN_POINT('',(20.4,-28.8,45.));
#1384=CARTESIAN_POINT('',(13.95,-28.8,45.));
#1385=CARTESIAN_POINT('',(20.4,-31.9000004768372,45.));
#1386=CARTESIAN_POINT('',(20.4,-19.9,45.));
#1387=CARTESIAN_POINT('',(-10.45,-31.9000004768372,45.));
#1388=CARTESIAN_POINT('',(20.4,-31.9000004768372,45.));
#1389=CARTESIAN_POINT('',(-10.45,-33.6000004991889,45.));
#1390=CARTESIAN_POINT('',(-10.45,-31.9000004768372,45.));
#1391=CARTESIAN_POINT('',(-5.,-33.6000004991889,45.));
#1392=CARTESIAN_POINT('',(-10.45,-33.6000004991889,45.));
#1393=CARTESIAN_POINT('',(-5.,-45.,45.));
#1394=CARTESIAN_POINT('',(-5.,-45.,45.));
#1395=CARTESIAN_POINT('',(-22.5,-45.,45.));
#1396=CARTESIAN_POINT('',(22.5,-45.,45.));
#1397=CARTESIAN_POINT('',(-22.5,-27.942264973081,45.));
#1398=CARTESIAN_POINT('',(-22.5,-45.,45.));
#1399=CARTESIAN_POINT('',(-17.5,-25.0555136271329,45.));
#1400=CARTESIAN_POINT('',(-17.5,-25.0555136271329,45.));
#1401=CARTESIAN_POINT('',(-17.5,17.9444863728671,45.));
#1402=CARTESIAN_POINT('',(-17.5,17.9444863728671,45.));
#1403=CARTESIAN_POINT('',(-18.5,17.9444863728671,45.));
#1404=CARTESIAN_POINT('',(-18.5,17.9444863728671,45.));
#1405=CARTESIAN_POINT('',(-20.2,15.,45.));
#1406=CARTESIAN_POINT('',(-20.2,15.,45.));
#1407=CARTESIAN_POINT('',(-20.3999995440245,15.,45.));
#1408=CARTESIAN_POINT('',(-20.2,15.,45.));
#1409=CARTESIAN_POINT('',(-20.4,38.9,45.));
#1410=CARTESIAN_POINT('',(-20.3999995440245,15.,45.));
#1411=CARTESIAN_POINT('',(-19.0564659966251,38.9,45.));
#1412=CARTESIAN_POINT('',(-5.10000000000001,38.9,45.));
#1413=CARTESIAN_POINT('',(-19.0564659966251,37.9,45.));
#1414=CARTESIAN_POINT('',(-19.0564659966251,42.9,45.));
#1415=CARTESIAN_POINT('',(-16.343534003375,37.9,45.));
#1416=CARTESIAN_POINT('',(-5.10000000000001,37.9,45.));
#1417=CARTESIAN_POINT('',(-16.343534003375,38.9,45.));
#1418=CARTESIAN_POINT('',(-16.343534003375,42.9,45.));
#1419=CARTESIAN_POINT('',(-15.,38.9,45.));
#1420=CARTESIAN_POINT('',(-5.10000000000001,38.9,45.));
#1421=CARTESIAN_POINT('',(-15.,42.9,45.));
#1422=CARTESIAN_POINT('',(-15.,21.475,45.));
#1423=CARTESIAN_POINT('',(20.4,42.9,45.));
#1424=CARTESIAN_POINT('',(-20.4,42.9,45.));
#1425=CARTESIAN_POINT('',(20.4,28.8,45.));
#1426=CARTESIAN_POINT('',(20.4,42.9,45.));
#1427=CARTESIAN_POINT('',(16.4,28.8,45.));
#1428=CARTESIAN_POINT('',(13.95,28.8,45.));
#1429=CARTESIAN_POINT('',(16.4,13.075,45.));
#1430=CARTESIAN_POINT('',(-16.65,-32.750000488013,45.));
#1431=CARTESIAN_POINT('Origin',(-15.5,-32.750000488013,45.));
#1432=CARTESIAN_POINT('Origin',(20.4,23.4,43.7));
#1433=CARTESIAN_POINT('',(20.4,23.4,43.7));
#1434=CARTESIAN_POINT('',(20.4,23.4,45.));
#1435=CARTESIAN_POINT('',(16.4,23.4,43.7));
#1436=CARTESIAN_POINT('',(16.4,23.4,45.));
#1437=CARTESIAN_POINT('',(20.4,23.4,43.7));
#1438=CARTESIAN_POINT('Origin',(20.4,24.9,43.7));
#1439=CARTESIAN_POINT('',(20.4,24.9,42.2));
#1440=CARTESIAN_POINT('Origin',(20.4,24.9,43.7));
#1441=CARTESIAN_POINT('',(16.4,24.9,42.2));
#1442=CARTESIAN_POINT('Origin',(16.4,24.9,43.7));
#1443=CARTESIAN_POINT('',(20.4,24.9,42.2));
#1444=CARTESIAN_POINT('Origin',(20.4,27.3,42.2));
#1445=CARTESIAN_POINT('',(20.4,27.3,42.2));
#1446=CARTESIAN_POINT('',(20.4,24.9,42.2));
#1447=CARTESIAN_POINT('',(16.4,27.3,42.2));
#1448=CARTESIAN_POINT('',(16.4,24.9,42.2));
#1449=CARTESIAN_POINT('',(20.4,27.3,42.2));
#1450=CARTESIAN_POINT('Origin',(20.4,27.3,43.7));
#1451=CARTESIAN_POINT('',(20.4,28.8,43.7));
#1452=CARTESIAN_POINT('Origin',(20.4,27.3,43.7));
#1453=CARTESIAN_POINT('',(16.4,28.8,43.7));
#1454=CARTESIAN_POINT('Origin',(16.4,27.3,43.7));
#1455=CARTESIAN_POINT('',(20.4,28.8,43.7));
#1456=CARTESIAN_POINT('Origin',(20.4,28.8,45.));
#1457=CARTESIAN_POINT('',(20.4,28.8,43.7));
#1458=CARTESIAN_POINT('',(16.4,28.8,43.7));
#1459=CARTESIAN_POINT('Origin',(20.4,26.1,44.25));
#1460=CARTESIAN_POINT('',(16.4,24.55,44.25));
#1461=CARTESIAN_POINT('Origin',(16.4,26.1,44.25));
#1462=CARTESIAN_POINT('Origin',(16.4,26.1,44.25));
#1463=CARTESIAN_POINT('',(20.4,24.55,44.25));
#1464=CARTESIAN_POINT('',(20.4,24.55,44.25));
#1465=CARTESIAN_POINT('Origin',(20.4,26.1,44.25));
#1466=CARTESIAN_POINT('Origin',(16.4,26.1,43.6));
#1467=CARTESIAN_POINT('Origin',(20.4,-28.8,43.7));
#1468=CARTESIAN_POINT('',(20.4,-28.8,43.7));
#1469=CARTESIAN_POINT('',(20.4,-28.8,45.));
#1470=CARTESIAN_POINT('',(16.4,-28.8,43.7));
#1471=CARTESIAN_POINT('',(16.4,-28.8,45.));
#1472=CARTESIAN_POINT('',(20.4,-28.8,43.7));
#1473=CARTESIAN_POINT('Origin',(20.4,-27.3,43.7));
#1474=CARTESIAN_POINT('',(20.4,-27.3,42.2));
#1475=CARTESIAN_POINT('Origin',(20.4,-27.3,43.7));
#1476=CARTESIAN_POINT('',(16.4,-27.3,42.2));
#1477=CARTESIAN_POINT('Origin',(16.4,-27.3,43.7));
#1478=CARTESIAN_POINT('',(20.4,-27.3,42.2));
#1479=CARTESIAN_POINT('Origin',(20.4,-24.9,42.2));
#1480=CARTESIAN_POINT('',(20.4,-24.9,42.2));
#1481=CARTESIAN_POINT('',(20.4,-27.3,42.2));
#1482=CARTESIAN_POINT('',(16.4,-24.9,42.2));
#1483=CARTESIAN_POINT('',(16.4,-27.3,42.2));
#1484=CARTESIAN_POINT('',(20.4,-24.9,42.2));
#1485=CARTESIAN_POINT('Origin',(20.4,-24.9,43.7));
#1486=CARTESIAN_POINT('',(20.4,-23.4,43.7));
#1487=CARTESIAN_POINT('Origin',(20.4,-24.9,43.7));
#1488=CARTESIAN_POINT('',(16.4,-23.4,43.7));
#1489=CARTESIAN_POINT('Origin',(16.4,-24.9,43.7));
#1490=CARTESIAN_POINT('',(20.4,-23.4,43.7));
#1491=CARTESIAN_POINT('Origin',(20.4,-23.4,45.));
#1492=CARTESIAN_POINT('',(20.4,-23.4,43.7));
#1493=CARTESIAN_POINT('',(16.4,-23.4,43.7));
#1494=CARTESIAN_POINT('Origin',(20.4,-26.1,44.25));
#1495=CARTESIAN_POINT('',(16.4,-27.65,44.25));
#1496=CARTESIAN_POINT('Origin',(16.4,-26.1,44.25));
#1497=CARTESIAN_POINT('Origin',(16.4,-26.1,44.25));
#1498=CARTESIAN_POINT('',(20.4,-27.65,44.25));
#1499=CARTESIAN_POINT('',(20.4,-27.65,44.25));
#1500=CARTESIAN_POINT('Origin',(20.4,-26.1,44.25));
#1501=CARTESIAN_POINT('Origin',(16.4,-26.1,43.6));
#1502=CARTESIAN_POINT('Origin',(-17.7,37.9,45.4));
#1503=CARTESIAN_POINT('Origin',(-17.7,37.9,44.25));
#1504=CARTESIAN_POINT('Origin',(-15.,42.9,43.7));
#1505=CARTESIAN_POINT('',(-15.,42.9,43.7));
#1506=CARTESIAN_POINT('',(-15.,42.9,45.));
#1507=CARTESIAN_POINT('',(-15.,38.9,43.7));
#1508=CARTESIAN_POINT('',(-15.,38.9,45.));
#1509=CARTESIAN_POINT('',(-15.,42.9,43.7));
#1510=CARTESIAN_POINT('Origin',(-16.5,42.9,43.7));
#1511=CARTESIAN_POINT('',(-16.5,42.9,42.2));
#1512=CARTESIAN_POINT('Origin',(-16.5,42.9,43.7));
#1513=CARTESIAN_POINT('',(-16.5,38.9,42.2));
#1514=CARTESIAN_POINT('Origin',(-16.5,38.9,43.7));
#1515=CARTESIAN_POINT('',(-16.5,42.9,42.2));
#1516=CARTESIAN_POINT('Origin',(-18.9,42.9,42.2));
#1517=CARTESIAN_POINT('',(-18.9,42.9,42.2));
#1518=CARTESIAN_POINT('',(-16.5,42.9,42.2));
#1519=CARTESIAN_POINT('',(-18.9,38.9,42.2));
#1520=CARTESIAN_POINT('',(-16.5,38.9,42.2));
#1521=CARTESIAN_POINT('',(-18.9,42.9,42.2));
#1522=CARTESIAN_POINT('Origin',(-18.9,42.9,43.7));
#1523=CARTESIAN_POINT('',(-20.4,42.9,43.7));
#1524=CARTESIAN_POINT('Origin',(-18.9,42.9,43.7));
#1525=CARTESIAN_POINT('',(-20.4,38.9,43.7));
#1526=CARTESIAN_POINT('Origin',(-18.9,38.9,43.7));
#1527=CARTESIAN_POINT('',(-20.4,42.9,43.7));
#1528=CARTESIAN_POINT('Origin',(-20.4,42.9,45.));
#1529=CARTESIAN_POINT('',(-20.4,42.9,45.));
#1530=CARTESIAN_POINT('',(-20.4,42.9,43.7));
#1531=CARTESIAN_POINT('',(-20.4,38.9,43.7));
#1532=CARTESIAN_POINT('',(-20.3999995440245,15.,45.));
#1533=CARTESIAN_POINT('Origin',(-17.7,42.9,44.25));
#1534=CARTESIAN_POINT('',(-16.15,38.9,44.25));
#1535=CARTESIAN_POINT('Origin',(-17.7,38.9,44.25));
#1536=CARTESIAN_POINT('Origin',(-17.7,38.9,44.25));
#1537=CARTESIAN_POINT('',(-16.15,42.9,44.25));
#1538=CARTESIAN_POINT('',(-16.15,42.9,44.25));
#1539=CARTESIAN_POINT('Origin',(-17.7,42.9,44.25));
#1540=CARTESIAN_POINT('Origin',(-17.7,38.9,43.6));
#1541=CARTESIAN_POINT('Origin',(-15.5,-32.750000488013,46.15));
#1542=CARTESIAN_POINT('',(-17.75,-32.750000488013,46.15));
#1543=CARTESIAN_POINT('Origin',(-15.5,-32.750000488013,46.15));
#1544=CARTESIAN_POINT('',(-16.65,-32.750000488013,46.15));
#1545=CARTESIAN_POINT('Origin',(-15.5,-32.750000488013,46.15));
#1546=CARTESIAN_POINT('Origin',(-15.5,-32.750000488013,46.575));
#1547=CARTESIAN_POINT('',(-17.75,-32.750000488013,47.));
#1548=CARTESIAN_POINT('Origin',(-15.5,-32.750000488013,47.));
#1549=CARTESIAN_POINT('',(-17.75,-32.750000488013,46.575));
#1550=CARTESIAN_POINT('Origin',(-15.5,-32.750000488013,46.));
#1551=CARTESIAN_POINT('',(-16.65,-32.750000488013,46.));
#1552=CARTESIAN_POINT('Origin',(-5.,-33.6000004991889,47.));
#1553=CARTESIAN_POINT('',(-5.,-45.,47.));
#1554=CARTESIAN_POINT('',(-5.,-33.6000004991889,47.));
#1555=CARTESIAN_POINT('',(-5.,-45.,47.));
#1556=CARTESIAN_POINT('',(-5.,-45.,47.));
#1557=CARTESIAN_POINT('',(-5.,-33.6000004991889,47.));
#1558=CARTESIAN_POINT('Origin',(-10.45,-33.6000004991889,47.));
#1559=CARTESIAN_POINT('',(-10.45,-33.6000004991889,47.));
#1560=CARTESIAN_POINT('',(-10.45,-33.6000004991889,47.));
#1561=CARTESIAN_POINT('',(-10.45,-33.6000004991889,47.));
#1562=CARTESIAN_POINT('Origin',(-10.45,-31.9000004768372,47.));
#1563=CARTESIAN_POINT('',(-10.45,-31.9000004768372,47.));
#1564=CARTESIAN_POINT('',(-10.45,-31.9000004768372,47.));
#1565=CARTESIAN_POINT('',(-10.45,-31.9000004768372,47.));
#1566=CARTESIAN_POINT('Origin',(20.4,-31.9000004768372,47.));
#1567=CARTESIAN_POINT('',(20.4,-31.9000004768372,47.));
#1568=CARTESIAN_POINT('',(20.4,-31.9000004768372,47.));
#1569=CARTESIAN_POINT('',(20.4,-31.9000004768372,47.));
#1570=CARTESIAN_POINT('Origin',(20.4,-19.9,47.));
#1571=CARTESIAN_POINT('',(20.4,-19.9,47.));
#1572=CARTESIAN_POINT('',(20.4,-19.9,47.));
#1573=CARTESIAN_POINT('',(20.4,-19.9,47.));
#1574=CARTESIAN_POINT('Origin',(35.4,-19.9,47.));
#1575=CARTESIAN_POINT('',(35.4,-19.9,47.));
#1576=CARTESIAN_POINT('',(35.4,-19.9,47.));
#1577=CARTESIAN_POINT('',(35.4,-19.9,47.));
#1578=CARTESIAN_POINT('Origin',(35.4,19.9,47.));
#1579=CARTESIAN_POINT('',(35.4,19.9,47.));
#1580=CARTESIAN_POINT('',(35.4,19.9,47.));
#1581=CARTESIAN_POINT('',(35.4,19.9,47.));
#1582=CARTESIAN_POINT('Origin',(20.4,19.9,47.));
#1583=CARTESIAN_POINT('',(20.4,19.9,47.));
#1584=CARTESIAN_POINT('',(20.4,19.9,47.));
#1585=CARTESIAN_POINT('',(20.4,19.9,47.));
#1586=CARTESIAN_POINT('Origin',(20.4,42.9,47.));
#1587=CARTESIAN_POINT('',(20.4,42.9,47.));
#1588=CARTESIAN_POINT('',(20.4,42.9,47.));
#1589=CARTESIAN_POINT('',(20.4,42.9,47.));
#1590=CARTESIAN_POINT('Origin',(-20.4,42.9,47.));
#1591=CARTESIAN_POINT('',(-20.4,42.9,47.));
#1592=CARTESIAN_POINT('',(-20.4,42.9,47.));
#1593=CARTESIAN_POINT('',(-20.4,42.9,47.));
#1594=CARTESIAN_POINT('Origin',(-20.3999995440245,15.,47.));
#1595=CARTESIAN_POINT('',(-20.3999995440245,15.,47.));
#1596=CARTESIAN_POINT('',(-20.3999995440245,15.,47.));
#1597=CARTESIAN_POINT('',(-20.3999995440245,15.,47.));
#1598=CARTESIAN_POINT('Origin',(-20.2,15.,47.));
#1599=CARTESIAN_POINT('',(-20.2,15.,47.));
#1600=CARTESIAN_POINT('',(-20.2,15.,47.));
#1601=CARTESIAN_POINT('',(-20.2,15.,47.));
#1602=CARTESIAN_POINT('Origin',(-18.5,17.9444863728671,47.));
#1603=CARTESIAN_POINT('',(-18.5,17.9444863728671,47.));
#1604=CARTESIAN_POINT('',(-20.2,15.,47.));
#1605=CARTESIAN_POINT('',(-18.5,17.9444863728671,47.));
#1606=CARTESIAN_POINT('Origin',(-17.5,17.9444863728671,47.));
#1607=CARTESIAN_POINT('',(-17.5,17.9444863728671,47.));
#1608=CARTESIAN_POINT('',(-18.5,17.9444863728671,47.));
#1609=CARTESIAN_POINT('',(-17.5,17.9444863728671,47.));
#1610=CARTESIAN_POINT('Origin',(-17.5,-25.0555136271329,47.));
#1611=CARTESIAN_POINT('',(-17.5,-25.0555136271329,47.));
#1612=CARTESIAN_POINT('',(-17.5,17.9444863728671,47.));
#1613=CARTESIAN_POINT('',(-17.5,-25.0555136271329,47.));
#1614=CARTESIAN_POINT('Origin',(-22.5,-27.942264973081,47.));
#1615=CARTESIAN_POINT('',(-22.5,-27.942264973081,47.));
#1616=CARTESIAN_POINT('',(-17.5,-25.0555136271329,47.));
#1617=CARTESIAN_POINT('',(-22.5,-27.942264973081,47.));
#1618=CARTESIAN_POINT('Origin',(-22.5,-45.,47.));
#1619=CARTESIAN_POINT('',(-22.5,-45.,47.));
#1620=CARTESIAN_POINT('',(-22.5,-45.,47.));
#1621=CARTESIAN_POINT('',(-22.5,-45.,47.));
#1622=CARTESIAN_POINT('Origin',(-5.,-45.,47.));
#1623=CARTESIAN_POINT('',(22.5,-45.,47.));
#1624=CARTESIAN_POINT('Origin',(7.5,0.0499999999999989,47.));
#1625=CARTESIAN_POINT('',(0.,0.,0.));
#1626=UNCERTAINTY_MEASURE_WITH_UNIT(LENGTH_MEASURE(0.01),#1632,
'DISTANCE_ACCURACY_VALUE',
'Maximum model space distance between geometric entities at asserted c
onnectivities');
#1627=UNCERTAINTY_MEASURE_WITH_UNIT(LENGTH_MEASURE(0.01),#1632,
'DISTANCE_ACCURACY_VALUE',
'Maximum model space distance between geometric entities at asserted c
onnectivities');
#1628=UNCERTAINTY_MEASURE_WITH_UNIT(LENGTH_MEASURE(0.01),#1632,
'DISTANCE_ACCURACY_VALUE',
'Maximum model space distance between geometric entities at asserted c
onnectivities');
#1629=(
GEOMETRIC_REPRESENTATION_CONTEXT(3)
GLOBAL_UNCERTAINTY_ASSIGNED_CONTEXT((#1626))
GLOBAL_UNIT_ASSIGNED_CONTEXT((#1632,#1634,#1635))
REPRESENTATION_CONTEXT('','3D')
);
#1630=(
GEOMETRIC_REPRESENTATION_CONTEXT(3)
GLOBAL_UNCERTAINTY_ASSIGNED_CONTEXT((#1627))
GLOBAL_UNIT_ASSIGNED_CONTEXT((#1632,#1634,#1635))
REPRESENTATION_CONTEXT('','3D')
);
#1631=(
GEOMETRIC_REPRESENTATION_CONTEXT(3)
GLOBAL_UNCERTAINTY_ASSIGNED_CONTEXT((#1628))
GLOBAL_UNIT_ASSIGNED_CONTEXT((#1632,#1634,#1635))
REPRESENTATION_CONTEXT('','3D')
);
#1632=(
LENGTH_UNIT()
NAMED_UNIT(*)
SI_UNIT(.MILLI.,.METRE.)
);
#1633=(
LENGTH_UNIT()
NAMED_UNIT(*)
SI_UNIT($,.METRE.)
);
#1634=(
NAMED_UNIT(*)
PLANE_ANGLE_UNIT()
SI_UNIT($,.RADIAN.)
);
#1635=(
NAMED_UNIT(*)
SI_UNIT($,.STERADIAN.)
SOLID_ANGLE_UNIT()
);
#1636=SHAPE_DEFINITION_REPRESENTATION(#1638,#1641);
#1637=SHAPE_DEFINITION_REPRESENTATION(#1639,#1642);
#1638=PRODUCT_DEFINITION_SHAPE('',$,#1644);
#1639=PRODUCT_DEFINITION_SHAPE('',$,#1645);
#1640=PRODUCT_DEFINITION_SHAPE($,$,#14);
#1641=SHAPE_REPRESENTATION('',(#997,#1074),#1629);
#1642=SHAPE_REPRESENTATION('',(#998),#1630);
#1643=PRODUCT_DEFINITION_CONTEXT('part definition',#1651,'design');
#1644=PRODUCT_DEFINITION('2026-05-12-18-22-00-577',
'HomeControlEnclosures',#1646,#1643);
#1645=PRODUCT_DEFINITION('2026-05-12-20-01-31-289','Lid_One_Side',#1647,
#1643);
#1646=PRODUCT_DEFINITION_FORMATION('',$,#1653);
#1647=PRODUCT_DEFINITION_FORMATION('',$,#1654);
#1648=PRODUCT_RELATED_PRODUCT_CATEGORY('HomeControlEnclosures',
'HomeControlEnclosures',(#1653));
#1649=PRODUCT_RELATED_PRODUCT_CATEGORY('Lid_One_Side','Lid_One_Side',(#1654));
#1650=APPLICATION_PROTOCOL_DEFINITION('international standard',
'automotive_design',2009,#1651);
#1651=APPLICATION_CONTEXT(
'Core Data for Automotive Mechanical Design Process');
#1652=PRODUCT_CONTEXT('part definition',#1651,'mechanical');
#1653=PRODUCT('2026-05-12-18-22-00-577','HomeControlEnclosures',$,(#1652));
#1654=PRODUCT('2026-05-12-20-01-31-289','Lid_One_Side',$,(#1652));
#1655=PRESENTATION_STYLE_ASSIGNMENT((#1656));
#1656=SURFACE_STYLE_USAGE(.BOTH.,#1657);
#1657=SURFACE_SIDE_STYLE('',(#1658));
#1658=SURFACE_STYLE_FILL_AREA(#1659);
#1659=FILL_AREA_STYLE('Steel - Satin',(#1660));
#1660=FILL_AREA_STYLE_COLOUR('Steel - Satin',#1661);
#1661=COLOUR_RGB('Steel - Satin',0.627450980392157,0.627450980392157,0.627450980392157);
ENDSEC;
END-ISO-10303-21;
